<?xml version="1.0" encoding="UTF-8"?>
<svg id="Capa_1" xmlns="http://www.w3.org/2000/svg" version="1.1" viewBox="0 0 512 512">
  <!-- Generator: Adobe Illustrator 29.8.2, SVG Export Plug-In . SVG Version: 2.1.1 Build 3)  -->
  <defs>
    <style>
      .st0 {
        fill: none;
        stroke: #fff;
        stroke-linecap: round;
        stroke-linejoin: round;
        stroke-width: 30px;
      }
    </style>
  </defs>
  <path class="st0" d="M146.81,195.83h0c0-17.23,13.97-31.2,31.2-31.2h0c17.23,0,31.2,13.97,31.2,31.2h0c0,19.98-7.93,39.13-22.06,53.26l-40.33,40.33h62.39"/>
  <polyline class="st0" points="271.6 164.64 271.6 227.03 333.99 227.03"/>
  <line class="st0" x1="333.99" y1="164.64" x2="333.99" y2="289.42"/>
  <path class="st0" d="M458.77,233.37c0,21.9-3.22,43.04-9.22,62.98l-53.17-17.72-93.59,31.19v57.33c0,24.87,6.72,48.57,18.7,69.04-25.07,10.04-52.44,15.56-81.09,15.56-120.6,0-218.37-97.77-218.37-218.38,0-120.6,97.77-218.37,218.37-218.37s218.37,97.77,218.37,218.37Z"/>
  <line class="st0" x1="240.4" y1="15" x2="240.4" y2="39.85"/>
  <line class="st0" x1="85.99" y1="78.96" x2="103.56" y2="96.53"/>
  <line class="st0" x1="22.03" y1="233.37" x2="46.88" y2="233.37"/>
  <line class="st0" x1="85.99" y1="387.79" x2="103.56" y2="370.21"/>
  <line class="st0" x1="240.4" y1="451.74" x2="240.4" y2="426.89"/>
  <line class="st0" x1="458.77" y1="233.37" x2="433.92" y2="233.37"/>
  <line class="st0" x1="394.82" y1="78.96" x2="377.24" y2="96.53"/>
  <path class="st0" d="M489.97,309.82v57.33c0,29.46-9.43,57.27-25.84,80.03-16.41,22.77-39.81,40.5-67.75,49.82-32.3-10.77-58.52-32.77-74.89-60.81-11.98-20.47-18.7-44.17-18.7-69.04v-57.33l93.59-31.19,53.17,17.72,40.42,13.47Z"/>
  <polyline class="st0" points="360.93 382.54 377.1 404.46 431.83 371.17"/>
</svg>