<?xml version="1.0" encoding="UTF-8"?>
<svg id="Layer_1" xmlns="http://www.w3.org/2000/svg" version="1.1" viewBox="0 0 512 512">
  <!-- Generator: Adobe Illustrator 29.8.2, SVG Export Plug-In . SVG Version: 2.1.1 Build 3)  -->
  <defs>
    <style>
      .st0 {
        fill: #fff;
      }
    </style>
  </defs>
  <path class="st0" d="M271.06,30.62V0h-30.12v30.62c10.29-.67,19.81-.67,30.12,0Z"/>
  <path class="st0" d="M240.94,481.38v30.62h30.12v-30.62c-10.29.67-19.81.67-30.12,0Z"/>
  <path class="st0" d="M481.38,240.94c.65,9.92.7,19.44,0,30.12h30.62v-30.12h-30.62Z"/>
  <path class="st0" d="M30.62,240.94H0v30.12h30.62c-.65-9.97-.7-19.49,0-30.12Z"/>
  <path class="st0" d="M225.88,301.18c1.66,39.97,58.59,39.93,60.24,0v-30.12h-60.24v30.12Z"/>
  <path class="st0" d="M256,210.82c-16.61,0-30.12,13.51-30.12,30.12h60.24c0-16.61-13.51-30.12-30.12-30.12Z"/>
  <path class="st0" d="M256,120.47c-74.73,0-135.53,60.8-135.53,135.53,7.44,179.8,263.64,179.75,271.06,0,0-74.73-60.8-135.53-135.53-135.53ZM346.35,256h-30.12v30.12h30.12v30.12h-32.02c-16.06,59.87-100.62,59.83-116.66,0h-32.02v-30.12h30.12v-30.12h-30.12v-30.12h32.02c2.51-9.72,7.39-18.49,13.99-25.66l-14.52-31.56,27.36-12.59,12.72,27.64c10.77-3.54,22.59-4.04,34-1.06l17.08-28.11,25.74,15.64-16.52,27.18c8.02,7.65,13.95,17.46,16.8,28.51h32.02v30.12Z"/>
  <path class="st0" d="M240.94,91.04V30.62c-112.71,7.37-202.94,97.42-210.32,210.32h60.42c7.18-79.34,70.55-142.71,149.9-149.9Z"/>
  <path class="st0" d="M420.95,240.94h60.42c-7.37-112.71-97.42-202.94-210.32-210.32v60.42c79.34,7.18,142.71,70.55,149.9,149.9Z"/>
  <path class="st0" d="M271.06,420.96v60.42c112.71-7.37,202.94-97.42,210.32-210.32h-60.42c-7.18,79.34-70.55,142.71-149.9,149.9Z"/>
  <path class="st0" d="M91.04,271.06H30.62c7.37,112.71,97.42,202.94,210.32,210.32v-60.42c-79.34-7.19-142.71-70.55-149.9-149.9Z"/>
</svg>