<?xml version="1.0" encoding="UTF-8"?>
<svg id="Layer_1" xmlns="http://www.w3.org/2000/svg" version="1.1" viewBox="0 0 64 64">
  <!-- Generator: Adobe Illustrator 29.8.1, SVG Export Plug-In . SVG Version: 2.1.1 Build 2)  -->
  <defs>
    <style>
      .st0 {
        fill: #fff;
      }
    </style>
  </defs>
  <path class="st0" d="M19,18h3c1.1,0,2-.9,2-2s-.9-2-2-2h-3c-1.1,0-2,.9-2,2s.9,2,2,2Z"/>
  <path class="st0" d="M24,21h-5c-1.1,0-2,.9-2,2s.9,2,2,2h5c1.1,0,2-.9,2-2s-.9-2-2-2Z"/>
  <path class="st0" d="M61.5,43.6l-6.9-6.9c.8-1.7,1.2-3.7,1.2-5.7,0-5.5-3.2-10.3-7.9-12.6v-7.4c0-2.8-2.3-5-5-5H15c-2.8,0-5,2.3-5,5v33h-4c-2.8,0-5,2.3-5,5v2.4c0,3.7,2.9,6.6,6.5,6.6h34.4c.2,0,.4,0,.6-.1,3.1-.5,5.4-3.2,5.4-6.4v-7.3l6.5,6.5c.9.9,2.2,1.5,3.5,1.5s2.6-.5,3.5-1.5c2.1-2,2.1-5.2.1-7.1ZM51.9,31c0,5.5-4.5,10-10,10s-10-4.5-10-10,4.5-10,10-10,10,4.5,10,10ZM5,51.5v-2.4c0-.6.5-1,1-1l28-.1c.6,0,1,.5,1,1v2.5c0,.9.2,1.7.5,2.5H7.6c-1.5,0-2.6-1.1-2.6-2.5ZM41.5,54c-1.4,0-2.5-1.1-2.5-2.5v-2.5c0-2.8-2.3-5-5-5H14V11c0-.6.5-1,1-1h28c.6,0,1,.5,1,1v6.1c-.7-.1-1.3-.2-2-.2-7.7,0-14,6.3-14,14s6.3,14,14,14c.7,0,1.4-.1,2-.2v6.7c0,1.5-1.1,2.6-2.5,2.6ZM58.7,47.8c-.3.3-.5.3-.7.3s-.4,0-.7-.3l-6.2-6.3c.5-.4,1-.9,1.4-1.4l6.2,6.3c.4.4.4,1,0,1.4Z"/>
  <path class="st0" d="M37.5,30.7c-.8-.8-2-.8-2.8,0s-.8,2,0,2.8l2.9,2.9c.4.4.9.6,1.4.6s1-.2,1.4-.6l6-6.1c.8-.8.8-2,0-2.8s-2-.8-2.8,0l-4.6,4.6-1.5-1.4Z"/>
</svg>