<?xml version="1.0" encoding="UTF-8"?>
<svg id="Layer_1" xmlns="http://www.w3.org/2000/svg" version="1.1" viewBox="0 0 512 512">
  <!-- Generator: Adobe Illustrator 29.8.2, SVG Export Plug-In . SVG Version: 2.1.1 Build 3)  -->
  <defs>
    <style>
      .st0 {
        fill: #fff;
        fill-rule: evenodd;
      }
    </style>
  </defs>
  <path class="st0" d="M365.67,379.49v-15.8H56.74v15.8h308.93ZM379.14,114.42c40.92,0,74.1,33.17,74.1,74.1s-33.17,74.1-74.1,74.1-74.1-33.17-74.1-74.1,33.17-74.1,74.1-74.1h0ZM400.68,141.99l.33,1.9c-7.35-3.99-15.49-5.99-23.64-5.99-36.1,0-59.9,37.35-45.11,70.03,1.36,3.02,4.91,4.36,7.92,3s4.36-4.91,3-7.92c-3.2-7.04-4.12-14.86-2.77-22.32,4.55-25.06,32.62-38.53,55.09-26.13l-4.13.73c-3.26.57-5.44,3.68-4.88,6.94.57,3.26,3.68,5.44,6.94,4.88l17.2-3.02c3.26-.57,5.44-3.68,4.88-6.94l-3.02-17.21c-.57-3.26-3.68-5.45-6.94-4.88s-5.45,3.68-4.88,6.94h0ZM414.64,182.65c3.33,26.13-20.64,47.57-46.27,41.26l3.82-1.78c3-1.4,4.3-4.97,2.91-7.97s-4.97-4.3-7.97-2.91l-15.84,7.37c-3,1.4-4.3,4.97-2.91,7.97l7.37,15.84c1.4,3,4.97,4.3,7.97,2.91s4.3-4.97,2.91-7.97l-.82-1.76c33.65,8.05,65.07-19.98,60.69-54.46-.41-3.27-3.4-5.59-6.68-5.18-3.27.41-5.59,3.4-5.18,6.68h0ZM279.28,244.54c54.29,57.96,144.88,55.92,196.66,0,11.43-12.34,16.04-23.67,20.3-38.76,26.71-94.58-112.34-144.29-99.7-195.78-36.7,11.66-55.29,40.42-55.78,86.29-8.53-14.19-39.79-28.62-59.26-33.99,29.12,40.13-1.45,61.59-14.55,91.3-15.4,28.96-8.33,68.87,12.34,90.94ZM379.14,102.42c-47.55,0-86.1,38.55-86.1,86.1s38.55,86.1,86.1,86.1,86.1-38.55,86.1-86.1-38.55-86.1-86.1-86.1ZM26.15,502h370.11c7.6,0,13.81-5.97,13.81-13.29v-83.93c0-7.32-6.2-13.29-13.81-13.29H26.15c-7.6,0-13.81,5.97-13.81,13.29v83.93c0,7.32,6.2,13.29,13.81,13.29ZM26.15,201.37c-7.6,0-13.81-5.97-13.81-13.29v-83.93c0-7.32,6.2-13.29,13.81-13.29h255.18c1.72,13.86-6.26,25.04-14.86,38.78h-78.79v32.96h62.71c-3.68,12.34-4.59,25.71-2.95,38.78H26.15ZM26.15,351.69h370.11c7.6,0,13.81-5.97,13.81-13.29v-42.71c-13.19,2.95-26.71,4.07-40.17,3.34v13.89h-182.23v-32.96h117.28c-15.35-8.76-33.36-23.12-43.4-38.78H26.15c-7.6,0-13.81,5.97-13.81,13.29v83.93c0,7.32,6.2,13.29,13.81,13.29h0ZM85.47,463.22h-32.96v-32.96h32.96v32.96ZM121.76,129.64v32.96h32.96v-32.96h-32.96ZM52.51,129.64v32.96h32.96v-32.96h-32.96ZM121.76,279.95h32.96v32.96h-32.96v-32.96ZM52.51,279.95h32.96v32.96h-32.96v-32.96ZM154.72,463.23h-32.96v-32.96h32.96v32.96ZM369.9,463.23h-182.23v-32.96h182.23v32.96ZM249.68,213.38c1.36,5.43,3.18,10.73,5.43,15.8H56.74v-15.8h192.94Z"/>
</svg>