<?xml version="1.0" encoding="UTF-8"?>
<svg id="Layer_1" xmlns="http://www.w3.org/2000/svg" version="1.1" viewBox="0 0 200 200">
  <!-- Generator: Adobe Illustrator 29.8.2, SVG Export Plug-In . SVG Version: 2.1.1 Build 3)  -->
  <defs>
    <style>
      .st0 {
        fill: #fff;
      }
    </style>
  </defs>
  <g id="_x30_9">
    <path class="st0" d="M71.32,184.02c-4-4.38-7.58-9.06-10.74-14.01h-17.72c-2.88-8.14-10.54-14.01-19.6-14.01-11.52,0-20.88,9.43-20.88,21.02s9.37,21.02,20.88,21.02c9.06,0,16.72-5.87,19.6-14.01h28.46ZM23.26,184.02c-3.84,0-6.96-3.14-6.96-7.01s3.12-7.01,6.96-7.01,6.96,3.14,6.96,7.01-3.12,7.01-6.96,7.01Z"/>
    <path class="st0" d="M176.41,156c-9.06,0-16.72,5.87-19.6,14.01h-17.72c-3.16,4.95-6.75,9.63-10.74,14.01h28.46c2.88,8.14,10.54,14.01,19.6,14.01,11.52,0,20.88-9.43,20.88-21.02s-9.37-21.02-20.88-21.02ZM176.41,184.02c-3.84,0-6.96-3.14-6.96-7.01s3.12-7.01,6.96-7.01,6.96,3.14,6.96,7.01-3.12,7.01-6.96,7.01Z"/>
    <path class="st0" d="M153.77,44.2C147.66,19.93,125.83,1.88,99.84,1.88s-47.83,18.04-53.93,42.32C21.47,46.83,2.37,67.68,2.37,92.95s20.24,47.29,45.69,48.88c-1.31-4.73-2.35-9.55-2.98-14.47-16.32-2.89-28.79-17.18-28.79-34.41s12.05-31.13,27.99-34.33c.36,3.53,3.22,6.31,6.82,6.31,3.85,0,6.96-3.14,6.96-7.01,0-23.18,18.74-42.03,41.77-42.03s41.77,18.85,41.77,42.03c0,3.87,3.11,7.01,6.96,7.01,3.6,0,6.46-2.79,6.82-6.31,15.93,3.2,27.98,17.37,27.98,34.33s-12.47,31.53-28.79,34.41c-.63,4.92-1.67,9.74-2.98,14.47,25.45-1.59,45.69-22.87,45.69-48.88s-19.1-46.13-43.53-48.75Z"/>
    <path class="st0" d="M99.84,198.03c-1.58,0-3.17-.54-4.45-1.62l-9.68-8.12c-21.99-18.43-34.6-45.52-34.6-74.32,0-1.86.73-3.64,2.04-4.95l13.92-14.01c1.31-1.31,3.07-2.05,4.92-2.05h55.69c1.85,0,3.62.74,4.92,2.05l13.92,14.01c1.31,1.31,2.04,3.1,2.04,4.95,0,28.8-12.61,55.89-34.59,74.32l-9.69,8.12c-1.28,1.08-2.87,1.62-4.45,1.62ZM65.08,116.82c.8,23.56,11.46,45.55,29.54,60.71l5.22,4.38,5.23-4.38c18.07-15.16,28.73-37.15,29.53-60.71l-9.8-9.86h-49.93l-9.8,9.86Z"/>
    <path class="st0" d="M99.84,156c-1.84,0-3.61-.73-4.92-2.05l-13.92-14.01c-2.72-2.74-2.72-7.17,0-9.91s7.12-2.74,9.84,0l8.25,8.3,16.07-21.56c2.31-3.09,6.67-3.72,9.74-1.4,3.08,2.32,3.71,6.71,1.39,9.81l-20.88,28.02c-1.21,1.62-3.06,2.64-5.07,2.78-.17.01-.33.02-.5.02Z"/>
  </g>
</svg>