<?xml version="1.0" encoding="UTF-8"?>
<svg id="Due_Diligence" xmlns="http://www.w3.org/2000/svg" version="1.1" viewBox="0 0 64 64">
  <!-- Generator: Adobe Illustrator 29.8.1, SVG Export Plug-In . SVG Version: 2.1.1 Build 2)  -->
  <defs>
    <style>
      .st0 {
        fill: #fff;
      }
    </style>
  </defs>
  <path class="st0" d="M18.75,13.35l-3.57,3.56-1.1-1.09c-.41-.41-1.08-.41-1.49,0-.41.41-.41,1.07,0,1.48l1.85,1.84c.21.21.48.31.75.31s.54-.11.75-.31l4.31-4.29c.41-.41.41-1.07,0-1.48s-1.08-.41-1.49,0h-.01Z"/>
  <path class="st0" d="M29.96,23.9l-1.72-1.7c.21-.43.4-.87.56-1.33h2.42c.58,0,1.06-.47,1.06-1.05v-6.54c0-.58-.48-1.05-1.06-1.05h-2.42c-.16-.45-.35-.89-.56-1.33l1.72-1.7c.19-.2.31-.46.31-.75s-.12-.55-.31-.75l-4.65-4.63c-.4-.39-1.1-.39-1.5,0l-1.71,1.71c-.43-.21-.88-.4-1.33-.56V1.83c0-.58-.48-1.05-1.06-1.05h-6.58c-.58,0-1.06.47-1.06,1.05v2.41c-.45.16-.9.35-1.33.56l-1.71-1.71c-.2-.19-.47-.31-.75-.31s-.55.12-.75.31L2.87,7.71c-.19.2-.31.47-.31.75s.12.55.31.75l1.72,1.7c-.21.43-.4.87-.56,1.33H1.61c-.58,0-1.06.47-1.06,1.05v6.54c0,.58.48,1.05,1.06,1.05h2.42c.16.45.35.89.56,1.33l-1.72,1.7c-.19.2-.31.46-.31.75s.12.55.31.75l4.65,4.63c.4.39,1.1.39,1.5,0l1.71-1.71c.43.21.88.4,1.33.56v2.41c0,.58.48,1.05,1.06,1.05h6.58c.58,0,1.06-.47,1.06-1.05v-2.41c.45-.16.9-.35,1.33-.56l1.71,1.71c.2.19.47.31.75.31s.55-.12.75-.31l4.65-4.63c.19-.2.31-.47.31-.75s-.12-.55-.31-.75ZM16.42,24.97c-4.66,0-8.46-3.78-8.46-8.41s3.8-8.41,8.46-8.41,8.46,3.78,8.46,8.41-3.8,8.41-8.46,8.41Z"/>
  <path class="st0" d="M46.24,57.57h-13.96v-26.3h23.26v14.73c0,.58.48,1.05,1.06,1.05s1.06-.47,1.06-1.05v-15.78c0-.58-.48-1.05-1.06-1.05h-25.38c-.58,0-1.06.47-1.06,1.05v28.4c0,.58.48,1.05,1.06,1.05h15.02c.58,0,1.06-.47,1.06-1.05s-.48-1.05-1.06-1.05Z"/>
  <path class="st0" d="M56.6,49.16c-4.08,0-7.4,3.3-7.4,7.36s3.32,7.36,7.4,7.36,7.4-3.3,7.4-7.36-3.32-7.36-7.4-7.36ZM60.07,55.46l-3.63,3.61c-.21.21-.48.31-.75.31s-.54-.09-.74-.31l-1.82-1.8c-.41-.41-.41-1.08,0-1.49s1.09-.41,1.5,0l1.06,1.06,2.88-2.86c.41-.41,1.09-.41,1.5,0s.41,1.07,0,1.48Z"/>
  <path class="st0" d="M51.31,35.48h-14.8c-.58,0-1.06.47-1.06,1.05s.48,1.05,1.06,1.05h14.8c.58,0,1.06-.47,1.06-1.05s-.48-1.05-1.06-1.05Z"/>
  <path class="st0" d="M51.31,40.74h-14.8c-.58,0-1.06.47-1.06,1.05s.48,1.05,1.06,1.05h14.8c.58,0,1.06-.47,1.06-1.05s-.48-1.05-1.06-1.05Z"/>
  <path class="st0" d="M52.37,47.05c0-.58-.48-1.05-1.06-1.05h-14.8c-.58,0-1.06.47-1.06,1.05s.48,1.05,1.06,1.05h14.8c.58,0,1.06-.47,1.06-1.05Z"/>
  <path class="st0" d="M36.51,51.26c-.58,0-1.06.47-1.06,1.05s.48,1.05,1.06,1.05h8.46c.58,0,1.06-.47,1.06-1.05s-.48-1.05-1.06-1.05h-8.46Z"/>
  <path class="st0" d="M36.51,11.29h16.92v13.67c0,.58.48,1.05,1.06,1.05s1.06-.47,1.06-1.05v-14.73c0-.58-.48-1.05-1.06-1.05h-17.98c-.58,0-1.06.47-1.06,1.05s.48,1.05,1.06,1.05Z"/>
  <path class="st0" d="M24.88,53.37h-13.75v-16.83c0-.58-.48-1.05-1.06-1.05s-1.06.47-1.06,1.05v17.88c0,.58.48,1.05,1.06,1.05h14.8c.58,0,1.06-.47,1.06-1.05s-.48-1.05-1.06-1.05Z"/>
</svg>