<?xml version="1.0" encoding="UTF-8"?>
<svg id="Layer_35" xmlns="http://www.w3.org/2000/svg" version="1.1" viewBox="0 0 512 512">
  <!-- Generator: Adobe Illustrator 29.8.2, SVG Export Plug-In . SVG Version: 2.1.1 Build 3)  -->
  <defs>
    <style>
      .st0 {
        fill: #fff;
      }
    </style>
  </defs>
  <path class="st0" d="M215.23,105.93h-17.42l-2.36,17.66h10.95l8.83-17.66Z"/>
  <path class="st0" d="M185.38,176.55h247.17c4.86,0,8.83-3.96,8.83-8.83v-17.66c0-4.86-3.96-8.83-8.83-8.83h-247.17c-4.86,0-8.83,3.96-8.83,8.83v17.66c0,4.86,3.96,8.83,8.83,8.83Z"/>
  <path class="st0" d="M198.03,244.03l-15.28,17.19c10.58,3.44,20.37,8.54,29.21,14.92-.03-.83-.1-1.65-.1-2.48,0-21.14,6.87-40.68,18.39-56.64-11.84,7.42-22.77,16.38-32.22,27.01Z"/>
  <circle class="st0" cx="308.97" cy="273.66" r="8.83"/>
  <path class="st0" d="M234.96,194.21h-93.72v62.24c2.92-.25,5.84-.45,8.83-.45,4.63,0,9.15.4,13.61.98.99-1.61,2.04-3.18,3.31-4.61l17.84-20.07c14.22-16.01,31.36-28.74,50.13-38.1h0Z"/>
  <path class="st0" d="M241.72,123.59l8.83-17.66h-15.57l-8.83,17.66h15.57Z"/>
  <path class="st0" d="M312.34,123.59l8.83-17.66h-15.57l-8.83,17.66h15.57Z"/>
  <path class="st0" d="M402.7,123.59h19.77l-2.36-17.66h-8.59l-8.83,17.66Z"/>
  <path class="st0" d="M412.11,45.97c-2.92-26.29-24.91-45.97-51.16-45.97h-4.33c-12.69,11.41-28.94,17.66-46.14,17.66h-3.03c-17.2,0-33.45-6.24-46.14-17.66h-4.33c-26.25,0-48.23,19.68-51.14,45.77l-5.67,42.5h217.57l-5.64-42.31Z"/>
  <path class="st0" d="M347.65,123.59l8.83-17.66h-15.57l-8.83,17.66h15.57Z"/>
  <path class="st0" d="M382.96,123.59l8.83-17.66h-15.57l-8.83,17.66h15.57Z"/>
  <path class="st0" d="M277.03,123.59l8.83-17.66h-15.57l-8.83,17.66h15.57Z"/>
  <path class="st0" d="M308.97,317.79c24.34,0,44.14-19.8,44.14-44.14s-19.8-44.14-44.14-44.14-44.14,19.8-44.14,44.14,19.8,44.14,44.14,44.14ZM308.97,247.17c14.6,0,26.48,11.88,26.48,26.48s-11.88,26.48-26.48,26.48-26.48-11.88-26.48-26.48,11.88-26.48,26.48-26.48Z"/>
  <path class="st0" d="M238.34,361.93c0-48.68-39.6-88.28-88.28-88.28s-88.28,39.6-88.28,88.28,39.6,88.28,88.28,88.28,88.28-39.6,88.28-88.28ZM150.07,432.55c-38.94,0-70.62-31.68-70.62-70.62s31.68-70.62,70.62-70.62,70.62,31.68,70.62,70.62-31.68,70.62-70.62,70.62Z"/>
  <path class="st0" d="M397.24,494.34h-176.55c-11.51,0-21.33,7.38-24.97,17.66h226.49c-3.64-10.28-13.45-17.66-24.96-17.66Z"/>
  <path class="st0" d="M485.52,158.9h-26.48v8.83c0,3.11-.64,6.06-1.62,8.83h19.28c9.74,0,17.66,7.92,17.66,17.66v194.21c0,9.74-7.92,17.66-17.66,17.66h-230.44c-2.88,6.24-6.33,12.14-10.31,17.66h249.58c14.6,0,26.48-11.88,26.48-26.48v-211.86c0-14.6-11.88-26.48-26.48-26.48Z"/>
  <path class="st0" d="M247.17,441.38h123.59v35.31h-123.59v-35.31Z"/>
  <path class="st0" d="M64.73,424.43l-60.01,60.02c-3,3.01-4.72,7.16-4.72,11.41,0,8.9,7.24,16.14,16.15,16.14,4.31,0,8.37-1.68,11.41-4.72l60-60.01c-8.72-6.42-16.42-14.11-22.83-22.84Z"/>
  <circle class="st0" cx="150.07" cy="361.93" r="52.97"/>
  <path class="st0" d="M254.12,342.42c17.51,6.98,35.91,10.68,54.85,10.68,2.8,0,5.55-.29,8.33-.44,39.9-4.18,71.12-38.01,71.12-79.01s-31.21-74.82-71.12-79.01c-2.78-.15-5.53-.44-8.33-.44s-5.55.29-8.33.44c-39.9,4.18-71.12,38.01-71.12,79.01,0,7.6,1.17,15.07,3.28,22.28,10.61,13.28,18.08,29.14,21.33,46.49h0ZM308.97,211.86c34.07,0,61.79,27.72,61.79,61.79s-27.72,61.79-61.79,61.79-61.79-27.73-61.79-61.79,27.72-61.79,61.79-61.79Z"/>
  <path class="st0" d="M387.67,330.3c11.84-7.42,22.78-16.38,32.23-27.02l17.84-20.07c2.35-2.64,3.64-6.04,3.64-9.56s-1.29-6.92-3.64-9.56l-17.84-20.07c-9.45-10.64-20.39-19.6-32.23-27.01,11.53,15.96,18.4,35.5,18.4,56.64s-6.88,40.69-18.4,56.65Z"/>
  <path class="st0" d="M476.69,194.21h-93.72c18.78,9.36,35.9,22.09,50.13,38.09l17.84,20.07c5.22,5.87,8.09,13.43,8.09,21.29s-2.88,15.41-8.09,21.29l-17.83,20.06c-29.22,32.87-70.31,52.52-113.96,55.21-3.35.35-6.74.55-10.19.55-18.18,0-35.91-3.03-52.97-8.79,0,9.15-1.29,17.97-3.49,26.45h224.18v-194.21Z"/>
  <path class="st0" d="M123.59,194.21c0-9.74,7.92-17.66,17.66-17.66h19.28c-.99-2.77-1.62-5.72-1.62-8.83v-8.83h-26.48c-14.6,0-26.48,11.88-26.48,26.48v80.38c5.64-2.6,11.54-4.69,17.66-6.27v-65.28Z"/>
</svg>