<?xml version="1.0" encoding="UTF-8"?>
<svg id="Layer_1" xmlns="http://www.w3.org/2000/svg" version="1.1" viewBox="0 0 510 510">
  <!-- Generator: Adobe Illustrator 29.8.1, SVG Export Plug-In . SVG Version: 2.1.1 Build 2)  -->
  <defs>
    <style>
      .st0 {
        fill: #fff;
        fill-rule: evenodd;
      }
    </style>
  </defs>
  <path class="st0" d="M145.58,303.7H15c-4.42,0-8-3.58-8-8V59.04c0-4.42,3.58-8,8-8h145.36c2.1,0,4.14.83,5.66,2.34l37.24,37.24c1.51,1.51,2.34,3.56,2.34,5.66v36.15h263.14c18.83,0,34.25,15.42,34.25,34.25v180.56c0,18.83-15.42,34.25-34.25,34.25h-82.79v25.71h31.95c17.14,0,30.38,12.18,30.38,25.86v17.89c0,4.42-3.58,8-8,8h-231.98c-4.42,0-8-3.58-8-8v-17.89c0-13.69,13.24-25.86,30.38-25.86h31.95v-25.71h-82.81c-18.84,0-34.25-15.42-34.25-34.25v-43.55ZM152.36,67.04H23v220.66h166.6v-6.94h-41.16c-8.44,0-15.31-6.87-15.31-15.31v-39.21c0-8.44,6.87-15.31,15.31-15.31h41.16v-106.64h-29.24c-4.42,0-8-3.58-8-8v-29.24ZM205.6,280.76v14.94c0,4.42-3.58,8-8,8h-14.07v17.59h281.53v-150.88H205.6v40.53h12.78v-15.47c0-4.62,2.59-8.65,6.76-10.58.02,0,.03-.01.05-.02,4.22-1.92,8.8-1.29,12.35,1.67l.06.05,59.34,50.39s.03.02.04.04c2.67,2.3,4.07,5.28,4.07,8.85s-1.39,6.55-4.07,8.85c-.01.01-.03.02-.04.04l-59.34,50.39s-.04.03-.06.05c-3.55,2.96-8.14,3.59-12.35,1.67-.02,0-.03-.01-.05-.02-4.17-1.94-6.76-5.97-6.76-10.58v-15.47h-12.78ZM167.53,303.7h-5.94v43.55c0,10.04,8.22,18.25,18.25,18.25h288.91c10.04,0,18.25-8.22,18.25-18.25v-180.56c0-10.04-8.22-18.25-18.25-18.25H205.6v5.97h263.82c6.38,0,11.64,5.19,11.64,11.64v163.25c0,4.42-3.58,8-8,8H175.53c-4.42,0-8-3.58-8-8v-25.59ZM178.29,88.28l-9.93-9.93v9.93h9.93ZM369.96,381.5h-91.31v25.71h91.31v-25.71ZM216.32,442.96h215.98v-9.89c0-5.98-6.89-9.86-14.38-9.86h-187.21c-7.49,0-14.38,3.88-14.38,9.86v9.89ZM149.13,226.93v37.83h77.25c4.42,0,8,3.58,8,8v14.1l48.3-41.02c-9.83-8.34-35.71-30.33-48.3-41.02v14.1c0,4.42-3.58,8-8,8h-77.25ZM52.27,172.11c-4.42,0-8-3.58-8-8s3.58-8,8-8h108.09c4.42,0,8,3.59,8,8s-3.58,8-8,8H52.27ZM52.27,203.97c-4.42,0-8-3.59-8-8s3.58-8,8-8h108.09c4.42,0,8,3.58,8,8s-3.58,8-8,8H52.27ZM52.27,267.67c-4.42,0-8-3.58-8-8s3.58-8,8-8h61.42c4.42,0,8,3.59,8,8s-3.58,8-8,8h-61.42ZM52.27,108.43c-4.42,0-8-3.58-8-8s3.58-8,8-8h77.58c4.41,0,8,3.58,8,8s-3.59,8-8,8H52.27ZM52.27,235.82c-4.42,0-8-3.58-8-8s3.58-8,8-8h61.42c4.42,0,8,3.59,8,8s-3.58,8-8,8h-61.42ZM52.27,140.28c-4.42,0-8-3.59-8-8s3.58-8,8-8h108.09c4.42,0,8,3.58,8,8s-3.58,8-8,8H52.27Z"/>
</svg>