<?xml version="1.0" encoding="UTF-8"?>
<svg id="Layer_1" xmlns="http://www.w3.org/2000/svg" version="1.1" viewBox="0 0 423 512">
  <!-- Generator: Adobe Illustrator 29.8.1, SVG Export Plug-In . SVG Version: 2.1.1 Build 2)  -->
  <defs>
    <style>
      .st0 {
        fill: #fff;
      }
    </style>
  </defs>
  <path class="st0" d="M153.65,304.6c0,4.42-3.58,8-8,8h-26.93c-4.42,0-8-3.58-8-8s3.58-8,8-8h26.93c4.42,0,8,3.58,8,8h0ZM145.65,371.16h-26.93c-4.42,0-8,3.58-8,8s3.58,8,8,8h26.93c4.42,0,8-3.58,8-8s-3.58-8-8-8h0ZM145.65,445.71h-26.93c-4.42,0-8,3.58-8,8s3.58,8,8,8h26.93c4.42,0,8-3.58,8-8s-3.58-8-8-8h0ZM408.67,304.62c-6.6,6.6-15.38,10.23-24.72,10.23s-18.12-3.63-24.72-10.23l-.29-.3-142.65-158.39c-3.62,2.04-7.73,3.14-12.02,3.15h-.03c-2.74,0-5.4-.45-7.91-1.3-10.89,11.52-20.78,23.4-29.24,35.05,47.86,4.76,92.14,19.93,92.14,45.41v110.61h1.27c3.12,0,5.96,1.82,7.27,4.65l5.35,11.61,7.76,3.22,11.97-4.42c2.93-1.08,6.21-.36,8.42,1.84l13.12,13.1c2.21,2.21,2.94,5.5,1.86,8.43l-4.42,12.01,3.2,7.76,11.6,5.35c2.84,1.31,4.65,4.14,4.65,7.27v18.54c0,3.12-1.82,5.96-4.65,7.27l-11.6,5.35-3.2,7.76,4.42,11.98c1.08,2.93.36,6.22-1.85,8.42l-13.12,13.12c-2.21,2.21-5.5,2.93-8.43,1.85l-11.98-4.42-7.76,3.2-5.35,11.61c-1.31,2.84-4.14,4.65-7.27,4.65h-18.54c-3.12,0-5.96-1.82-7.27-4.65l-5.16-11.2c-23.46,9.96-59.41,15.85-97.36,15.85-63.14,0-127.06-16.17-127.06-47.09v-223.66c0-9.72,6.61-23.59,38.08-34.48,20.14-6.97,46.62-11.3,75.18-12.36,3.8-27.79,15.75-53.75,35.23-76.03-2.5-6.83-1.87-14.53,1.89-20.91-3.66-4.22-5.67-9.59-5.67-15.28,0-6.28,2.44-12.17,6.86-16.57,4.38-4.4,10.26-6.84,16.54-6.84,5.67,0,11.02,2,15.25,5.65,3.73-2.21,8.01-3.38,12.47-3.38h.03c2.94,0,5.79.52,8.46,1.5,34.1-29.81,76.82-41.97,121.47-34.29,5.02.87,8.85,5,9.33,10.05.48,5.04-2.52,9.82-7.28,11.63-23.68,8.78-53.46,29.18-81.17,55.37,2.21,6.54,1.6,13.82-1.85,19.94l158.57,142.78.15.15c13.61,13.65,13.6,35.82,0,49.43h0ZM222.51,59.43l19.84,19.82c15.71-14.67,41.21-36.19,68.67-50.09-32.36-1.44-62.99,9.01-88.51,30.27h0ZM165.83,69.19c0,1.1.24,2.16.68,3.12l9.84-9.84c-.96-.44-2.02-.69-3.12-.69-1.99,0-3.85.76-5.23,2.15-1.41,1.41-2.18,3.26-2.18,5.26h0ZM133.19,206.99c13.89-27.45,35.43-52.97,50.11-68.69l-19.83-19.83c-21.25,25.51-31.71,56.14-30.28,88.52h0ZM132.18,482.99c23.02,0,45.1-2.22,63.65-6.23l-7.77-7.79c-2.2-2.21-2.92-5.49-1.84-8.42l4.42-11.97-3.22-7.76-11.61-5.35c-2.84-1.31-4.65-4.14-4.65-7.27v-5.86c-12.56,1.39-25.63,2.1-38.97,2.1-43.89,0-88.15-7.82-111.06-22.97v50.43c0,4.8,7.69,12.93,29.36,20.05,21.7,7.12,50.71,11.05,81.7,11.05h0ZM259.9,364.65l-4.52-9.8h-8.3l-4.52,9.8c-.84,1.83-2.34,3.27-4.2,4.04l-13.55,5.61c-1.86.77-3.94.81-5.83.12l-10.14-3.73-5.86,5.86,3.73,10.14c.69,1.89.65,3.97-.12,5.83l-5.61,13.55c-.77,1.86-2.21,3.36-4.04,4.2l-9.8,4.52v8.3l9.8,4.52c1.83.84,3.27,2.34,4.04,4.2l5.61,13.55c.77,1.86.81,3.94.12,5.83l-3.73,10.11,5.87,5.88,10.13-3.73c1.88-.69,3.96-.65,5.81.11l13.55,5.58c1.87.77,3.37,2.21,4.22,4.05l4.52,9.8h8.3l4.52-9.8c.85-1.83,2.35-3.28,4.22-4.05l13.55-5.58c1.86-.77,3.93-.8,5.82-.11l10.11,3.73,5.88-5.88-3.73-10.11c-.69-1.88-.65-3.96.11-5.82l5.58-13.55c.77-1.87,2.22-3.37,4.05-4.22l9.8-4.52v-8.3l-9.8-4.52c-1.83-.85-3.28-2.35-4.05-4.22l-5.58-13.55c-.77-1.86-.8-3.93-.11-5.81l3.73-10.13-5.88-5.86-10.11,3.73c-1.89.7-3.97.65-5.83-.11l-13.55-5.61c-1.86-.77-3.36-2.21-4.2-4.04h0ZM243.24,338.84v-11.93c-22.91,15.15-67.17,22.97-111.06,22.97s-88.15-7.82-111.06-22.97v50.43c0,4.8,7.69,12.93,29.36,20.05,21.7,7.12,50.71,11.05,81.7,11.05,13.68,0,27.04-.77,39.8-2.29.79-1.62,2.12-2.96,3.82-3.75l11.61-5.35,3.22-7.77-4.42-12c-1.08-2.93-.35-6.21,1.85-8.42l13.1-13.1c2.21-2.21,5.5-2.93,8.42-1.85l12,4.42,7.77-3.22,5.35-11.61c1.31-2.84,4.14-4.65,7.27-4.65h1.27,0ZM243.24,302.79v-50.43c-22.91,15.15-67.17,22.97-111.06,22.97s-88.15-7.82-111.06-22.97v50.43c0,4.79,7.69,12.92,29.36,20.04,21.71,7.13,50.72,11.06,81.7,11.06s59.97-3.93,81.68-11.06c21.68-7.12,29.37-15.24,29.37-20.03h0ZM156.79,198c-6.88,10.92-12.27,21.39-15.78,30.86-1.7,4.48-5.96,7.39-10.6,7.39-.35,0-.7-.02-1.05-.05-5.07-.48-9.21-4.31-10.08-9.32-1.7-9.92-2.41-19.75-2.18-29.41-26.27,1.11-50.41,5.1-68.67,11.41-20.16,6.97-27.31,14.78-27.31,19.35s7.69,12.92,29.36,20.04c21.71,7.13,50.72,11.06,81.7,11.06s59.97-3.93,81.68-11.06c21.68-7.12,29.37-15.24,29.37-20.04,0-10.09-30.73-26.3-86.45-30.23h0ZM210.25,130.6l24.4-24.37c3.33-3.32,3.33-8.74,0-12.07l-27.66-27.64c-1.6-1.61-3.73-2.48-6.01-2.49h0c-2.29,0-4.43.88-6.03,2.48l-24.35,24.35c-3.33,3.33-3.33,8.75,0,12.07l27.64,27.64c1.6,1.6,3.74,2.48,6.03,2.48h0c2.28,0,4.41-.88,5.99-2.47h0ZM397.48,266.62L239.31,124.2l-11.08,11.07,142.45,158.17c3.56,3.49,8.27,5.41,13.27,5.41s9.83-1.97,13.41-5.54c7.34-7.34,7.38-19.26.13-26.68h0ZM195.62,91.57c-3.88,3.86-3.88,10.12,0,13.97,3.85,3.86,10.12,3.86,13.98,0s3.86-10.12,0-13.97c-3.85-3.88-10.12-3.88-13.98,0ZM251.24,384.37c19.04,0,34.53,15.5,34.53,34.56s-15.49,34.53-34.53,34.53-34.56-15.49-34.56-34.53,15.5-34.56,34.56-34.56ZM251.24,400.37c-10.23,0-18.56,8.33-18.56,18.56s8.33,18.53,18.56,18.53,18.53-8.31,18.53-18.53-8.31-18.56-18.53-18.56Z"/>
</svg>