<?xml version="1.0" encoding="UTF-8"?>
<svg id="Layer_1" xmlns="http://www.w3.org/2000/svg" version="1.1" viewBox="0 0 48 48">
  <!-- Generator: Adobe Illustrator 29.8.1, SVG Export Plug-In . SVG Version: 2.1.1 Build 2)  -->
  <defs>
    <style>
      .st0 {
        fill: #fff;
      }
    </style>
  </defs>
  <path class="st0" d="M41.5,21.2v-12c0-1.7-1.4-3.1-3.1-3.1h-16.9q-.1,0-.1-.1l-2-3.8c-.5-1-1.6-1.7-2.8-1.7H3.6C1.9.5.5,1.9.5,3.6v28.4c0,1.7,1.4,3.1,3.1,3.1h18.2c.1,1.1.4,2.1.9,3.1.2.4.4.8.7,1.2,3.2,5.1,10.5,7.8,10.8,7.9l.5.2.5-.2c.5-.2,12.4-4.6,12.4-13.1v-10.2l-.9-.4c-.1,0-2.4-1-5.2-2.4ZM3.5,32V3.6c0-.1.1-.1.1-.1h13s.1,0,.1.1l2,3.8c.5,1,1.6,1.7,2.8,1.7h16.9q.1,0,.1.1v10.6c-1.1-.5-2.1-1.1-3.1-1.6l-.7-.4-.7.4c-1.4.7-2.9,1.5-4.4,2.2-3.6,1.7-6.9,3.1-6.9,3.1l-1,.5v8.2H3.6s-.1-.1-.1-.2ZM44.5,34.3c0,5.5-7.8,9.2-9.9,10.1-1.6-.7-6.5-3-8.8-6.5-.2-.3-.3-.5-.5-.9-.4-.9-.6-1.8-.6-2.7v-8.4c1.2-.5,3.6-1.6,6.1-2.8,1.3-.6,2.6-1.3,3.8-1.9.8.4,1.7.9,2.5,1.3.7.4,1.5.7,2.1,1,2.1,1,4.1,1.9,5.2,2.4v8.4h.1Z"/>
  <path class="st0" d="M34.6,23.9c-.6,0-1.1.1-1.6.3-1.9.7-3.2,2.5-3.2,4.6v.5c-.8.2-1.4.9-1.4,1.8v5.8c0,1,.8,1.9,1.9,1.9h8.7c1,0,1.9-.8,1.9-1.9v-5.8c0-.9-.6-1.6-1.4-1.8v-.5c0-2.7-2.2-4.9-4.9-4.9ZM32.8,28.8c0-.8.5-1.5,1.2-1.7.2-.1.4-.1.6-.1,1,0,1.8.8,1.8,1.8v.4h-3.7v-.4h.1ZM37.8,35.7h-6.5v-3.6h6.5v3.6Z"/>
</svg>