<?xml version="1.0" encoding="UTF-8"?>
<svg id="bold" xmlns="http://www.w3.org/2000/svg" version="1.1" viewBox="0 0 512 512">
  <!-- Generator: Adobe Illustrator 29.8.1, SVG Export Plug-In . SVG Version: 2.1.1 Build 2)  -->
  <defs>
    <style>
      .st0 {
        fill: #fff;
      }
    </style>
  </defs>
  <path class="st0" d="M384,256c-23.59,0-45.91,6.57-65.58,18.45l-13.78-13.76c-9.98-10.03-27.31-2.97-27.31,11.31v53.33c0,8.83,7.17,16,16,16h53.33c14.27,0,21.38-17.28,11.31-27.31l-8.06-8.06c10.62-4.63,22.08-7.3,34.09-7.3,47.06,0,85.33,38.27,85.33,85.33s-38.27,85.33-85.33,85.33c-40.55,0-75.65-28.65-83.37-68.1-2.26-11.56-13.53-19.11-25.05-16.83-11.56,2.26-19.11,13.48-16.83,25.05,11.67,59.41,64.34,102.55,125.25,102.55,70.59,0,128-57.41,128-128s-57.41-128-128-128Z"/>
  <path class="st0" d="M405.33,0H64C28.65,0,0,28.65,0,64s28.65,64,64,64h341.33c35.35,0,64-28.65,64-64S440.68,0,405.33,0ZM64,85.33c-11.78,0-21.33-9.56-21.33-21.33s9.56-21.33,21.33-21.33,21.33,9.56,21.33,21.33-9.56,21.33-21.33,21.33ZM149.33,85.33c-11.78,0-21.33-9.56-21.33-21.33s9.56-21.33,21.33-21.33,21.33,9.56,21.33,21.33-9.56,21.33-21.33,21.33Z"/>
  <path class="st0" d="M405.33,170.67H64C28.59,170.67,0,199.25,0,234.67s28.59,64,64,64h170.67v-26.67c0-23.68,14.08-45.01,36.05-54.19,18.77-7.68,39.68-5.33,55.68,5.76,18.56-6.83,37.97-10.24,57.6-10.24,30.93,0,60.16,8.32,85.33,23.04v-1.71c0-35.41-28.59-64-64-64h0ZM64,256c-11.73,0-21.33-9.6-21.33-21.33s9.6-21.33,21.33-21.33,21.33,9.6,21.33,21.33-9.6,21.33-21.33,21.33ZM149.33,256c-11.73,0-21.33-9.6-21.33-21.33s9.6-21.33,21.33-21.33,21.33,9.6,21.33,21.33-9.6,21.33-21.33,21.33Z"/>
  <path class="st0" d="M226.56,369.71c4.27-6.4,9.39-11.73,15.36-16-2.13-3.84-3.84-8.11-4.91-12.37H64C28.59,341.33,0,369.92,0,405.33s28.59,64,64,64h172.59c-9.17-15.57-16-33.07-19.63-51.63-3.41-16.85,0-33.92,9.6-48h0ZM64,426.67c-11.73,0-21.33-9.6-21.33-21.33s9.6-21.33,21.33-21.33,21.33,9.6,21.33,21.33-9.6,21.33-21.33,21.33ZM149.33,426.67c-11.73,0-21.33-9.6-21.33-21.33s9.6-21.33,21.33-21.33,21.33,9.6,21.33,21.33-9.6,21.33-21.33,21.33Z"/>
</svg>