<?xml version="1.0" encoding="UTF-8"?>
<svg id="Layer_1" xmlns="http://www.w3.org/2000/svg" version="1.1" viewBox="0 0 64 64">
  <!-- Generator: Adobe Illustrator 29.8.1, SVG Export Plug-In . SVG Version: 2.1.1 Build 2)  -->
  <defs>
    <style>
      .st0 {
        fill: #fff;
      }
    </style>
  </defs>
  <path class="st0" d="M62,51h-3v-28c0-3.31-2.69-6-6-6h-5.8v-.76c0-8.42-6.83-15.24-15.24-15.24-8.41,0-15.24,6.82-15.24,15.24v.76h-5.72c-3.31,0-6,2.69-6,6v28h-3C.9,51,0,51.9,0,53v2C0,59.42,3.58,63,8,63h48c4.42,0,8-3.58,8-8v-2c0-1.1-.9-2-2-2ZM32,5c6.21,0,11.24,5.03,11.24,11.24s-5.03,11.24-11.24,11.24-11.24-5.03-11.24-11.24c0-6.21,5.03-11.23,11.24-11.24ZM32.5,37.5v11c0,.28-.22.5-.5.5s-.5-.22-.5-.5v-11c0-.28.22-.5.5-.5s.5.22.5.5ZM9,23c0-1.1.9-2,2-2h6.54c1.83,5.54,6.67,9.55,12.46,10.32v2.17c-1.52.75-2.49,2.3-2.5,4v11c0,2.49,2.01,4.5,4.5,4.5s4.5-2.01,4.5-4.5h0v-11c0-1.7-.98-3.25-2.5-4v-2.17c5.79-.77,10.63-4.78,12.46-10.32h6.54c1.1,0,2,.9,2,2v28h-13c-1.1,0-2,.9-2,2h-16c0-1.1-.9-2-2-2h-13v-28ZM56,59H8c-2.21,0-4-1.79-4-4h16c0,1.1.9,2,2,2h20c1.1,0,2-.9,2-2h16c0,2.21-1.79,4-4,4Z"/>
  <path class="st0" d="M11.56,36.19h13c1.1,0,2-.9,2-2s-.9-2-2-2h-13c-1.1,0-2,.9-2,2s.9,2,2,2Z"/>
  <path class="st0" d="M11.56,41.19h13c1.1,0,2-.9,2-2s-.9-2-2-2h-13c-1.1,0-2,.9-2,2s.9,2,2,2Z"/>
  <path class="st0" d="M26.56,44.19c0-1.1-.9-2-2-2h-13c-1.1,0-2,.9-2,2s.9,2,2,2h13c1.1,0,2-.9,2-2Z"/>
</svg>