<?xml version="1.0" encoding="UTF-8"?>
<svg id="Layer_1" xmlns="http://www.w3.org/2000/svg" version="1.1" viewBox="0 0 48 48">
  <!-- Generator: Adobe Illustrator 29.8.1, SVG Export Plug-In . SVG Version: 2.1.1 Build 2)  -->
  <defs>
    <style>
      .st0 {
        fill: #fff;
        fill-rule: evenodd;
      }
    </style>
  </defs>
  <g id="Line-black">
    <path class="st0" d="M13.08,1.54H3.81C1.89,1.54.33,3.1.33,5.02v9.27c0,1.92,1.56,3.48,3.48,3.48h9.27c1.92,0,3.48-1.56,3.48-3.48V5.02c0-1.92-1.56-3.48-3.48-3.48ZM11.92,3.86v2.32c0,1.28-1.04,2.32-2.32,2.32h-2.32c-1.28,0-2.32-1.04-2.32-2.32v-2.32h-1.16c-.64,0-1.16.52-1.16,1.16v9.27c0,.64.52,1.16,1.16,1.16h9.27c.64,0,1.16-.52,1.16-1.16V5.02c0-.64-.52-1.16-1.16-1.16h-1.16ZM7.29,6.18v-2.32h2.32v2.32h-2.32Z"/>
    <path class="st0" d="M40.91,33.99h0c-1.92,0-3.48,1.56-3.48,3.48s1.56,3.48,3.48,3.48h2.32c.64,0,1.16.52,1.16,1.16s-.52,1.16-1.16,1.16h-3.48c-.64,0-1.16.52-1.16,1.16s.52,1.16,1.16,1.16h1.17v1.16c0,.64.52,1.16,1.16,1.16s1.16-.52,1.16-1.16v-1.16c1.92,0,3.47-1.56,3.47-3.48s-1.56-3.48-3.48-3.48h-2.32c-.64,0-1.16-.52-1.16-1.16s.52-1.16,1.16-1.16h3.48c.64,0,1.16-.52,1.16-1.16s-.52-1.16-1.16-1.16h-1.15v-1.16c0-.64-.52-1.16-1.16-1.16s-1.16.52-1.16,1.16v1.16Z"/>
    <path class="st0" d="M7.29,25.2v12.27c0,.92.37,1.81,1.02,2.46.65.65,1.54,1.02,2.46,1.02h20.86c.64,0,1.16-.52,1.16-1.16s-.52-1.16-1.16-1.16H10.76c-.31,0-.6-.12-.82-.34-.22-.22-.34-.51-.34-.82v-12.27l2.66,2.66c.45.45,1.19.45,1.64,0,.45-.45.45-1.19,0-1.64l-3-3c-.65-.65-1.54-1.02-2.46-1.02s-1.81.37-2.46,1.02c-1.33,1.33-3,3-3,3-.45.45-.45,1.19,0,1.64s1.19.45,1.64,0l2.66-2.66Z"/>
    <path class="st0" d="M40.9,24.24l-2.66-2.66c-.45-.45-1.19-.45-1.64,0s-.45,1.19,0,1.64c0,0,1.66,1.66,3,3,.65.65,1.54,1.02,2.46,1.02s1.81-.37,2.46-1.02c1.33-1.33,3-3,3-3,.45-.45.45-1.19,0-1.64s-1.19-.45-1.64,0l-2.66,2.66v-12.27c0-.92-.37-1.81-1.02-2.46-.65-.65-1.54-1.02-2.46-1.02h-17.38c-.64,0-1.16.52-1.16,1.16s.52,1.16,1.16,1.16h17.38c.31,0,.6.12.82.34.22.22.34.51.34.82v12.27Z"/>
  </g>
</svg>