<?xml version="1.0" encoding="UTF-8"?>
<svg id="Capa_1" xmlns="http://www.w3.org/2000/svg" version="1.1" viewBox="0 0 512 512">
  <!-- Generator: Adobe Illustrator 29.8.1, SVG Export Plug-In . SVG Version: 2.1.1 Build 2)  -->
  <defs>
    <style>
      .st0 {
        fill: #fff;
      }
    </style>
  </defs>
  <path class="st0" d="M303.27,0C191.4,0,100.38,91.02,100.38,202.9v23.31c-35.32,42.4-41.63,100.96-18.93,149.14l-62.98,62.98c-8.15,8.15-12.65,19-12.65,30.53s4.49,22.37,12.65,30.53c8.42,8.42,19.47,12.62,30.53,12.62s22.11-4.21,30.53-12.62l20.85-20.85v32.1h202.7c111.98,0,203.09-91.1,203.09-203.09v-104.65C506.17,91.02,415.15,0,303.27,0ZM130.13,237.88c20.76-20.76,48.37-32.2,77.73-32.2s56.97,11.43,77.73,32.2c42.86,42.86,42.86,112.6,0,155.46-42.86,42.86-112.6,42.86-155.46,0-42.86-42.86-42.86-112.6,0-155.46h0ZM311.91,222.22c-1.67-1.86-3.39-3.68-5.18-5.47-3.85-3.85-7.89-7.44-12.09-10.77v-3.07c0-4.76,3.87-8.63,8.63-8.63s8.63,3.87,8.63,8.63v19.32h0ZM341.79,275.56v-72.66c0-21.24-17.28-38.52-38.52-38.52-16.34,0-30.33,10.24-35.92,24.63-7.52-3.54-15.34-6.38-23.39-8.52,9.18-24.12,32.65-41.01,59.31-41.01,34.97,0,63.43,28.45,63.43,63.43v104.65c0,20.66-10.1,39.39-25.83,51.1,8.67-26.93,8.97-56,.92-83.08h0ZM319.67,399.56c44.09-7.94,76.92-46.86,76.92-92.01v-104.65c0-51.45-41.86-93.31-93.31-93.31-41.4,0-77.56,27.69-89.3,66.35-2.03-.09-4.07-.14-6.11-.14-6.75,0-13.43.48-20,1.42,5.15-23.19,17.24-44.38,34.97-60.87,21.96-20.42,50.52-31.67,80.44-31.67,65.19,0,118.22,53.03,118.22,118.22v104.65c0,65.29-53.12,118.41-118.41,118.41h-9.35c4.51-3.51,8.85-7.34,12.99-11.48,4.73-4.73,9.04-9.72,12.94-14.92h0ZM109,414.47c2.21,2.21,4.49,4.33,6.81,6.36l-31.41,31.41-18.79-18.79,31.94-31.94c3.51,4.5,7.32,8.83,11.45,12.96ZM39.61,478.24c-2.51-2.51-3.89-5.85-3.89-9.39s1.38-6.89,3.89-9.39l4.87-4.87,18.79,18.79-4.87,4.87c-5.18,5.18-13.61,5.18-18.79,0h0ZM476.28,307.54c0,95.5-77.7,173.2-173.2,173.2h-172.82v-32.1l10.41-10.41c20.82,11.39,43.94,17.11,67.07,17.13v.48h95.34c81.77,0,148.3-66.52,148.3-148.29v-104.65c0-81.67-66.44-148.1-148.1-148.1-37.49,0-73.29,14.09-100.79,39.67-25.94,24.12-42.23,56.31-46.3,91.16-9.05,3.6-17.72,8.14-25.87,13.6,1.96-93.71,78.79-169.34,172.96-169.34s173.01,77.61,173.01,173.01v104.65Z"/>
  <path class="st0" d="M207.87,400.95c21.76,0,43.52-8.28,60.09-24.85,33.13-33.13,33.13-87.04,0-120.18-33.13-33.13-87.04-33.13-120.18,0-33.13,33.13-33.13,87.04,0,120.18,16.57,16.57,38.33,24.85,60.09,24.85h0ZM168.91,277.06c10.74-10.74,24.85-16.11,38.96-16.11s28.22,5.37,38.96,16.11c21.48,21.48,21.48,56.43,0,77.91-21.48,21.48-56.43,21.48-77.91,0-21.48-21.48-21.48-56.43,0-77.91h0Z"/>
</svg>