<?xml version="1.0" encoding="UTF-8"?>
<svg id="Layer_1" xmlns="http://www.w3.org/2000/svg" version="1.1" viewBox="0 0 34.96 48">
  <!-- Generator: Adobe Illustrator 29.8.1, SVG Export Plug-In . SVG Version: 2.1.1 Build 2)  -->
  <defs>
    <style>
      .st0 {
        fill: #fff;
      }
    </style>
  </defs>
  <g id="Layer_15">
    <path class="st0" d="M20.09,44H2.44V4h18v6c0,1.1.9,2,2,2h6v15.34c0,.55.45,1,1,1s1-.45,1-1v-15.93c0-.53-.21-1.04-.58-1.41l-7.42-7.42c-.37-.37-.88-.58-1.41-.58H2.44C1.34,2,.44,2.9.44,4v40c0,1.1.9,2,2,2h17.65c.55,0,1-.45,1-1s-.45-1-1-1ZM22.44,5.41l4.59,4.59h-4.59v-4.59Z"/>
    <path class="st0" d="M20.15,13.29c-.39-.39-1.02-.39-1.41,0,0,0,0,0,0,0l-8,8c-.39.39-.39,1.02,0,1.41,0,0,0,0,0,0,.39.39,1.02.39,1.41,0,0,0,0,0,0,0l8-8c.39-.39.39-1.02,0-1.41,0,0,0,0,0,0Z"/>
    <circle class="st0" cx="18.94" cy="21.5" r="1.5"/>
    <circle class="st0" cx="11.94" cy="14.5" r="1.5"/>
    <path class="st0" d="M18.3,29c0-.55-.45-1-1-1H7.44c-.55,0-1,.45-1,1s.45,1,1,1h9.86c.55,0,1-.45,1-1Z"/>
    <path class="st0" d="M7.44,35h7.2c.55,0,1-.45,1-1s-.45-1-1-1h-7.2c-.55,0-1,.45-1,1s.45,1,1,1Z"/>
    <path class="st0" d="M7.44,40h7.46c.55,0,1-.45,1-1s-.45-1-1-1h-7.46c-.55,0-1,.45-1,1s.45,1,1,1Z"/>
    <path class="st0" d="M26.89,33.11c-.49-.25-1.09-.05-1.34.44l-1.38,2.76-1-1c-.39-.39-1.03-.39-1.42,0-.39.39-.39,1.03,0,1.42l2,2c.19.18.43.27.69.27h.16c.32-.05.59-.25.73-.54l2-4c.25-.49.06-1.09-.43-1.35,0,0,0,0,0,0Z"/>
    <path class="st0" d="M34.15,44.29l-4.11-4.11c2.31-3.1,1.68-7.48-1.42-9.8s-7.48-1.68-9.8,1.42c-2.31,3.1-1.68,7.48,1.42,9.8,2.48,1.86,5.89,1.86,8.38,0l4.11,4.11c.39.39,1.02.39,1.41,0,0,0,0,0,0,0,.39-.39.39-1.02,0-1.41,0,0,0,0,0,0ZM19.44,36c0-2.76,2.24-5,5-5s5,2.24,5,5-2.24,5-5,5-5-2.24-5-5Z"/>
  </g>
</svg>