<?xml version="1.0" encoding="UTF-8"?>
<svg id="Layer_1" xmlns="http://www.w3.org/2000/svg" version="1.1" viewBox="0 0 390 512">
  <!-- Generator: Adobe Illustrator 29.8.1, SVG Export Plug-In . SVG Version: 2.1.1 Build 2)  -->
  <defs>
    <style>
      .st0 {
        fill: #fff;
      }
    </style>
  </defs>
  <path class="st0" d="M390,362h-30v-137c0-85.93-66.02-156.71-150-164.31v-30.69h24V0h-78v30h24v30.69C96.02,68.29,30,139.07,30,225v137H0v90h32.58c-1.66,4.7-2.58,9.74-2.58,15,0,24.81,20.19,45,45,45s45-20.19,45-45c0-5.26-.91-10.3-2.58-15h155.16c-1.66,4.7-2.58,9.74-2.58,15,0,24.81,20.19,45,45,45s45-20.19,45-45c0-5.26-.91-10.3-2.58-15h32.58v-90ZM60,225c0-74.7,60.99-135.43,135.79-135,74.49.43,134.21,61.98,134.21,136.48v135.52h-30v-129h-45v-60h-120v60h-45v129h-30v-137ZM270,263v99H120v-99h150ZM165,233v-30h60v30h-60ZM75,482c-8.27,0-15-6.73-15-15s6.73-15,15-15,15,6.73,15,15-6.73,15-15,15ZM315,482c-8.27,0-15-6.73-15-15s6.73-15,15-15,15,6.73,15,15-6.73,15-15,15ZM360,422H30v-30h330v30Z"/>
</svg>