<?xml version="1.0" encoding="UTF-8"?>
<svg id="Capa_1" xmlns="http://www.w3.org/2000/svg" version="1.1" viewBox="0 0 512 512">
  <!-- Generator: Adobe Illustrator 29.8.1, SVG Export Plug-In . SVG Version: 2.1.1 Build 2)  -->
  <defs>
    <style>
      .st0 {
        fill: #fff;
      }
    </style>
  </defs>
  <path class="st0" d="M377.3,137.17V0H32.93V512h344.37v-109.21l74.26-39.37c16.97-9,27.52-26.52,27.52-45.73v-151.68l-101.77-28.83ZM62.93,482V30h284.37v108.81l-25.73,7.29c-15.14-49.96-61.62-86.43-116.46-86.43-67.09,0-121.67,54.58-121.67,121.67,0,34.76,14.66,66.17,38.12,88.36-14.56,17.85-27.3,34.56-30.62,42.16-10.37,23.75.52,51.51,24.27,61.88,6.03,2.63,12.41,3.95,18.79,3.95,5.8,0,11.61-1.09,17.17-3.27,11.69-4.58,20.89-13.45,25.91-24.95,3.16-7.23,6.57-26.35,9.64-47.85,5.99.91,12.13,1.39,18.38,1.39,16.34,0,31.94-3.25,46.18-9.11v23.8c0,19.21,10.54,36.73,27.52,45.73l68.48,36.31v82.27H62.93ZM194.5,238c3.44.64,6.99,1,10.62,1,18.87,0,35.66-9.11,46.18-23.17v44.66c-13.57,7.95-29.35,12.51-46.18,12.51-4.92,0-9.76-.39-14.47-1.15,1.52-12.51,2.85-24.4,3.86-33.85ZM177.45,181.33c0-15.26,12.41-27.67,27.67-27.67s27.67,12.41,27.67,27.67-12.41,27.67-27.67,27.67-27.67-12.41-27.67-27.67ZM205.11,123.67c-31.8,0-57.67,25.87-57.67,57.67,0,15.24,5.95,29.11,15.64,39.43-6.04,6.91-13.92,16.01-22.27,25.84-16.89-16.64-27.37-39.75-27.37-65.27,0-50.54,41.12-91.67,91.67-91.67,41.13,0,76.02,27.23,87.59,64.61l-32.74,9.27c-7.52-23.12-29.26-39.88-54.85-39.88ZM160.64,269.69c-4.09,33.12-8.46,61.82-11.04,67.77-1.82,4.16-5.15,7.37-9.37,9.02-4.23,1.66-8.85,1.57-13.01-.25-8.59-3.75-12.53-13.79-8.78-22.38,2.61-5.93,20.69-28.65,42.2-54.17ZM449.07,317.68h0c0,8.08-4.43,15.44-11.57,19.23l-72.32,38.35-72.32-38.35c-7.14-3.78-11.57-11.15-11.57-19.23v-129l83.89-23.76,83.89,23.76v129Z"/>
  <path class="st0" d="M365.18,286.42c-12.48,0-21.12,8.16-21.12,18.88s8.64,19.2,21.12,19.2,21.12-8.64,21.12-19.2c0-10.72-8.64-18.88-21.12-18.88Z"/>
  <polygon class="st0" points="343.58 210.9 350.79 280.02 379.58 280.02 386.79 210.9 343.58 210.9"/>
  <rect class="st0" x="289.63" y="416" width="30" height="30"/>
  <rect class="st0" x="95.63" y="416" width="30" height="30"/>
  <rect class="st0" x="165.26" y="416" width="85.33" height="30"/>
</svg>