<?xml version="1.0" encoding="UTF-8"?>
<svg id="Capa_1" xmlns="http://www.w3.org/2000/svg" version="1.1" viewBox="0 0 512 512">
  <!-- Generator: Adobe Illustrator 29.8.2, SVG Export Plug-In . SVG Version: 2.1.1 Build 3)  -->
  <defs>
    <style>
      .st0 {
        fill: #fff;
      }
    </style>
  </defs>
  <path class="st0" d="M384,512H128c-20.52,0-39.8-7.99-54.31-22.5-14.5-14.5-22.49-33.79-22.49-54.3V76.8c0-20.51,7.99-39.8,22.49-54.31C88.2,7.99,107.49,0,128,0h143c13.68,0,26.53,5.33,36.2,15l138.6,138.6c9.67,9.66,14.99,22.51,15,36.19v245.41c0,20.51-7.99,39.8-22.49,54.31-14.5,14.5-33.79,22.49-54.31,22.49h0ZM128,51.2c-6.84,0-13.27,2.66-18.1,7.5-4.83,4.83-7.5,11.26-7.5,18.1v358.4c0,6.84,2.66,13.27,7.5,18.1,4.83,4.83,11.26,7.5,18.1,7.5h256c6.84,0,13.27-2.66,18.1-7.5,4.84-4.84,7.5-11.27,7.5-18.1v-245.4L271,51.2h-143ZM332.8,384h-153.6c-14.14,0-25.6-11.46-25.6-25.6s11.46-25.6,25.6-25.6h153.6c14.14,0,25.6,11.46,25.6,25.6s-11.46,25.6-25.6,25.6ZM332.8,281.6h-153.6c-14.14,0-25.6-11.46-25.6-25.6s11.46-25.6,25.6-25.6h153.6c14.14,0,25.6,11.46,25.6,25.6,0,14.14-11.46,25.6-25.6,25.6Z"/>
</svg>