<?xml version="1.0" encoding="UTF-8"?>
<svg id="Capa_1" xmlns="http://www.w3.org/2000/svg" version="1.1" viewBox="0 0 512 512">
  <!-- Generator: Adobe Illustrator 29.8.2, SVG Export Plug-In . SVG Version: 2.1.1 Build 3)  -->
  <defs>
    <style>
      .st0 {
        fill: #fff;
      }
    </style>
  </defs>
  <path class="st0" d="M296.85,146.77l17.65-24.26c-28.32-20.61-61.87-31.51-97-31.51s-68.68,10.9-97,31.51l17.65,24.26c23.16-16.86,50.6-25.77,79.35-25.77s56.19,8.91,79.35,25.77Z"/>
  <path class="st0" d="M85.23,73.97l17.65,24.26c33.46-24.35,73.09-37.22,114.62-37.22s81.16,12.87,114.62,37.22l17.65-24.26c-38.62-28.11-84.36-42.97-132.27-42.97s-93.65,14.86-132.27,42.97h0Z"/>
  <path class="st0" d="M138.15,365.23l-17.65,24.26c28.32,20.61,61.87,31.51,97,31.51s68.68-10.9,97-31.51l-17.65-24.26c-23.16,16.86-50.6,25.77-79.35,25.77s-56.19-8.91-79.35-25.77h0Z"/>
  <path class="st0" d="M217.5,451c-41.52,0-81.16-12.87-114.62-37.22l-17.65,24.26c38.62,28.11,84.36,42.97,132.27,42.97s93.65-14.86,132.27-42.97l-17.65-24.26c-33.46,24.35-73.09,37.22-114.62,37.22h0Z"/>
  <path class="st0" d="M357.07,135.5v68.86h43.04v172.14h68.86v-172.14h43.04v-68.86h-154.93Z"/>
  <path class="st0" d="M0,135.5h68.86v241H0v-241Z"/>
  <path class="st0" d="M217.5,359.29c57.04,0,103.29-46.24,103.29-103.29s-46.24-103.29-103.29-103.29-103.29,46.24-103.29,103.29,46.24,103.29,103.29,103.29ZM217.5,221.57c19.01,0,34.43,15.41,34.43,34.43s-15.41,34.43-34.43,34.43-34.43-15.41-34.43-34.43,15.41-34.43,34.43-34.43h0Z"/>
</svg>