<?xml version="1.0" encoding="UTF-8"?>
<svg id="Layer_1" xmlns="http://www.w3.org/2000/svg" version="1.1" viewBox="0 0 510 510">
  <!-- Generator: Adobe Illustrator 29.8.2, SVG Export Plug-In . SVG Version: 2.1.1 Build 3)  -->
  <defs>
    <style>
      .st0 {
        fill: #fff;
        fill-rule: evenodd;
      }
    </style>
  </defs>
  <g id="Artboard211">
    <path class="st0" d="M167.39,354.34l-32.17-56.85,42.54-24.63c11.44-6.62,22.92-11.97,35.49-7.89h0c16.77,5.44,44.11,17.01,72.05,22.16,5.7,2.08,9.43,7.76,7.84,13.65h0c-1.58,5.87-6.65,8.6-13.49,7.87-15.28-3.16-29.47-7.8-45.2-12.03-4.53-1.22-9.2,1.47-10.42,6-1.22,4.53,1.47,9.2,6,10.41,16.2,4.35,30.81,9.11,46.55,12.34h.01c.11.03.23.05.34.07l8.64,1.41s.02,0,.03,0c13.13,2.09,25.17.23,36.67-6.47l69.63-40.55c28.19-16.42,40.26-8.39,39.94,3.58-.11,3.96-1.5,7.99-4.61,9.9l-126.35,77.79h0c-9.55,5.9-20.02,7.22-30.86,4.33l-91.64-24.56c-2.18-.58-4.5-.28-6.45.85l-4.54,2.62ZM190.37,248.7c-2.4-5.66-4.34-11.52-5.78-17.52l-21.36-8.22v-34.89l21.36-8.22c2.74-11.42,7.24-22.28,13.39-32.26l-9.31-20.94,24.67-24.67,20.94,9.31c9.98-6.15,20.84-10.65,32.22-13.35l8.26-21.4h34.89l8.22,21.4c11.38,2.71,22.24,7.2,32.22,13.35l20.94-9.31,24.67,24.67-9.28,20.94c6.15,9.98,10.65,20.84,13.35,32.26l21.36,8.22v34.89l-21.36,8.22c-2.71,11.39-7.24,22.24-13.35,32.22h0c-1.02.56-2.05,1.14-3.09,1.75l-69.63,40.55c-1.68.98-3.38,1.81-5.11,2.49.35-.96.67-1.96.95-2.98,3.28-12.2-2.11-24.38-12.25-30.96,35.68-2.62,63.83-32.4,63.83-68.75s-30.87-68.9-68.94-68.9-68.9,30.83-68.9,68.9c0,22.1,10.39,41.77,26.55,54.39-12.24-4.17-23.11-8.4-31.35-11.08-9.7-3.15-19.02-2.7-28.11-.11h0ZM108.36,284.56l57.43,101.47c2.77,4.92,1.02,11.2-3.88,13.97l-19.53,11.07c-4.92,2.77-11.2,1.02-13.97-3.88l-57.43-101.47c-2.79-4.92-1.04-11.2,3.86-13.97l19.55-11.07c4.9-2.77,11.18-1.02,13.97,3.88ZM95.02,298.65c-4.43.63-7.49,4.75-6.86,9.18.66,4.43,4.77,7.52,9.21,6.86,4.43-.63,7.49-4.77,6.86-9.21-.66-4.43-4.77-7.49-9.21-6.83h0ZM282.61,219.12l35.48-35.86c4.2-4.23,11.07-4.25,15.29-.04,4.23,4.2,4.25,11.04.04,15.29-14.4,14.53-28.69,29.15-43.15,43.61-4.23,4.23-11.09,4.23-15.31,0l-23.98-24.01c-4.23-4.23-4.23-11.07,0-15.31,4.23-4.23,11.09-4.23,15.31,0l16.32,16.32ZM196.13,471.74c4.53,1.23,7.21,5.9,5.98,10.43-1.23,4.53-5.9,7.21-10.43,5.98-81.71-22.17-146.28-86.2-169.21-167.61-1.27-4.52,1.36-9.21,5.88-10.49s9.21,1.36,10.49,5.88c21.31,75.67,81.34,135.2,157.3,155.81h0ZM471.17,315.93c1.27-4.52,5.97-7.15,10.49-5.88s7.15,5.97,5.88,10.49c-22.57,80.14-85.5,143.44-165.42,166.54-4.51,1.3-9.22-1.3-10.53-5.81-1.3-4.51,1.3-9.22,5.81-10.53,74.29-21.48,132.79-80.32,153.77-154.82h0ZM313.18,38.08c-4.53-1.21-7.22-5.88-6.01-10.41,1.21-4.53,5.88-7.22,10.41-6.01,84.03,22.51,150.05,89.26,171.53,173.71,1.16,4.55-1.6,9.18-6.14,10.33-4.55,1.16-9.18-1.6-10.33-6.14-19.97-78.5-81.34-140.55-159.46-161.48h0ZM38.31,195.97c-1.23,4.53-5.91,7.2-10.43,5.97-4.53-1.23-7.2-5.91-5.97-10.43C44.4,108.84,109.74,43.76,192.55,21.62c4.53-1.21,9.19,1.48,10.41,6.02,1.21,4.53-1.48,9.19-6.02,10.41C119.96,58.63,59.22,119.13,38.31,195.97ZM255,0c13.31,0,24.11,10.8,24.11,24.11s-10.8,24.11-24.11,24.11-24.11-10.8-24.11-24.11S241.69,0,255,0ZM510,255c0,13.31-10.8,24.11-24.11,24.11s-24.11-10.8-24.11-24.11,10.8-24.11,24.11-24.11,24.11,10.8,24.11,24.11h0ZM255,510c-13.31,0-24.11-10.8-24.11-24.11s10.8-24.11,24.11-24.11,24.11,10.8,24.11,24.11-10.8,24.11-24.11,24.11ZM0,255c0-13.31,10.8-24.11,24.11-24.11s24.11,10.8,24.11,24.11-10.8,24.11-24.11,24.11S0,268.31,0,255Z"/>
  </g>
</svg>