<?xml version="1.0" encoding="UTF-8"?>
<svg id="Capa_1" xmlns="http://www.w3.org/2000/svg" version="1.1" viewBox="0 0 512 512">
  <!-- Generator: Adobe Illustrator 29.8.2, SVG Export Plug-In . SVG Version: 2.1.1 Build 3)  -->
  <defs>
    <style>
      .st0 {
        fill: #fff;
      }
    </style>
  </defs>
  <path class="st0" d="M322.19,271.79l39.77-7.73-5.72-29.45-34.05,6.62v-17.02h-132.36v16.93l-33.6-6.53-5.72,29.45,39.32,7.64v2.31c0,10.83,2.62,21.07,7.25,30.1l-25.93,21.74v39.37h30v-25.38l15.29-12.82c11.04,8.26,24.74,13.16,39.56,13.16s28.72-4.97,39.8-13.34l15.5,13v25.38h30v-39.37l-26.24-22.01c4.55-8.97,7.12-19.11,7.12-29.84v-2.22h0Z"/>
  <path class="st0" d="M213.77,178.43c-2.85,4.79-4.92,10.11-6,15.77h96.48c-1.09-5.66-3.15-10.98-6-15.77,1.04-12.66,11.68-22.65,24.61-22.65v-30c-21.95,0-40.92,13-49.62,31.7-5.36-2.01-11.17-3.12-17.22-3.12s-11.86,1.1-17.22,3.12c-8.7-18.7-27.67-31.7-49.62-31.7v30c12.93,0,23.57,9.99,24.61,22.65h0Z"/>
  <path class="st0" d="M512,271v-30h-29.66c-3.24-49.97-22.64-96.81-55.69-134.44l20.97-20.97-21.21-21.21-20.97,20.97c-37.63-33.04-84.47-52.45-134.44-55.69V0h-30v29.66c-49.97,3.24-96.81,22.64-134.44,55.69l-20.97-20.97-21.21,21.21,20.97,20.97c-33.04,37.63-52.45,84.47-55.69,134.44H0v30h29.66c3.24,49.97,22.64,96.81,55.69,134.44l-20.97,20.97,21.21,21.21,20.97-20.97c37.63,33.04,84.47,52.45,134.44,55.69v29.66h30v-29.66c49.97-3.24,96.81-22.64,134.44-55.69l20.97,20.97,21.21-21.21-20.97-20.97c33.04-37.63,52.45-84.47,55.69-134.44h29.66ZM405.32,384.1l-22-22-21.21,21.21,22,22c-30.89,26.54-70.09,43.69-113.1,46.94v-31.2h-30v31.2c-43.01-3.26-82.21-20.4-113.1-46.94l22-22-21.21-21.21-22,22c-26.54-30.89-43.69-70.09-46.94-113.1h31.21v-30h-31.21c3.26-43.01,20.4-82.21,46.94-113.1l22,22,21.21-21.21-22-22c30.89-26.54,70.09-43.69,113.1-46.94v31.21h30v-31.21c43.01,3.26,82.21,20.4,113.1,46.94l-22,22,21.21,21.21,22-22c26.54,30.89,43.69,70.09,46.94,113.1h-31.2v30h31.2c-3.26,43.01-20.4,82.21-46.94,113.1Z"/>
</svg>