<?xml version="1.0" encoding="UTF-8"?>
<svg id="Layer_1" xmlns="http://www.w3.org/2000/svg" version="1.1" viewBox="0 0 48 48">
  <!-- Generator: Adobe Illustrator 29.8.1, SVG Export Plug-In . SVG Version: 2.1.1 Build 2)  -->
  <defs>
    <style>
      .st0 {
        fill: #fff;
      }
    </style>
  </defs>
  <g id="mortgage">
    <path class="st0" d="M44,31v-9.6c1.56.55,3.28-.27,3.83-1.83.11-.32.17-.65.17-.98,0-1.7.29-.94-16.17-17.42-1.56-1.56-4.09-1.56-5.66,0,0,0,0,0,0,0C9.79,17.57,10,16.87,10,18.59c.02,1.66,1.38,2.98,3.04,2.96.33,0,.65-.06.96-.17v6c-1.55-.1-1.93,0-6,.53v-.91c0-.55-.45-1-1-1H1c-.55,0-1,.45-1,1v17c0,.55.45,1,1,1h6c.55,0,1-.45,1-1v-1c1.65,0,2.56-.11,3.77.45,15,6.8,11.11,6.84,34.06-4.89,1.97-1.01,2.74-3.42,1.74-5.38-.69-1.34-2.06-2.18-3.57-2.18ZM12.3,17.88L27.58,2.59c.79-.76,2.05-.76,2.84,0,16.64,16.65,15.58,15.41,15.58,16,0,.55-.46.99-1.01.99-.26,0-.5-.11-.69-.29l-14.59-14.58c-.39-.39-1.02-.39-1.41,0,0,0,0,0,0,0l-14.59,14.58c-.43.34-1.06.27-1.4-.17-.29-.37-.29-.88,0-1.24ZM16,19.82l13-13,13,13v11.71l-11,5.62c.06-1.6-.84-3.09-2.29-3.77-11.58-5.44-11.15-5.33-12.71-5.73v-7.83ZM6,43H2v-15h4v15ZM44.92,36.78c-17.5,8.94-17.36,9.22-20.2,9.22-1.46.07-2.92-.2-4.26-.8-10.11-4.59-8.46-4.2-12.46-4.2v-11.12c8.23-1,5.45-1.46,19.85,5.3,1,.47,1.43,1.66.97,2.67s-1.66,1.43-2.67.97l-7.89-3.71c-.51-.2-1.09.05-1.3.57-.18.46,0,.99.44,1.23l7.89,3.71c1.27.61,2.77.5,3.93-.3l13.86-7.09c.98-.51,2.19-.12,2.7.86s.12,2.19-.86,2.7Z"/>
    <path class="st0" d="M24,28c.6,0-.1.51,10.71-10.29.39-.39.39-1.03,0-1.42-.39-.39-1.03-.39-1.42,0l-10,10c-.39.39-.39,1.02,0,1.41.19.19.45.3.72.3Z"/>
    <path class="st0" d="M26,21c1.66,0,3-1.34,3-3s-1.34-3-3-3-3,1.34-3,3,1.34,3,3,3ZM26,17c.55,0,1,.45,1,1s-.45,1-1,1-1-.45-1-1,.45-1,1-1Z"/>
    <path class="st0" d="M32,23c-1.66,0-3,1.34-3,3s1.34,3,3,3,3-1.34,3-3-1.34-3-3-3ZM32,27c-.55,0-1-.45-1-1s.45-1,1-1,1,.45,1,1-.45,1-1,1Z"/>
  </g>
</svg>