<?xml version="1.0" encoding="UTF-8"?>
<svg id="Capa_1" xmlns="http://www.w3.org/2000/svg" version="1.1" viewBox="0 0 416.14 512">
  <!-- Generator: Adobe Illustrator 29.8.1, SVG Export Plug-In . SVG Version: 2.1.1 Build 2)  -->
  <defs>
    <style>
      .st0 {
        fill: #fff;
      }
    </style>
  </defs>
  <path class="st0" d="M416.14,199.24h-30.51V0H109.62L30.5,79.12v120.13H0v252.76h30.5v60h355.13v-60h30.51v-252.76h0ZM117.8,34.25v53.04h-53.04l53.04-53.04ZM60.51,117.29h87.29V30h207.84v169.24H60.5v-81.95ZM355.64,482H60.5v-30h295.13v30h0ZM386.14,422H30v-192.76h356.14v192.76Z"/>
  <path class="st0" d="M237.83,381.81c12.34,0,23.4-4.05,32-11.7,1.69-1.5,11.19-12.58,11.19-12.58l-15.33-12.85s-8.2,9.63-9.16,10.49c-4.95,4.4-11.24,6.64-18.7,6.64-19.95,0-36.19-16.23-36.19-36.19s16.23-36.19,36.19-36.19c7.25,0,14.25,2.14,20.23,6.17l8.29,5.6,11.2-16.57-8.29-5.6c-9.3-6.28-20.16-9.6-31.42-9.6-30.98,0-56.19,25.21-56.19,56.19s25.21,56.19,56.19,56.19h0Z"/>
  <path class="st0" d="M311.93,341.58l39.04,44.36,15.01-13.21-31.77-36.1c15.81-3.39,27.66-16.98,27.66-33.19,0-18.75-15.86-34.01-35.37-34.01h-34.58v112.38h20v-40.23h0ZM326.51,289.43c8.33,0,15.37,6.42,15.37,14.01s-7.04,14.01-15.37,14.01c-3.33,0-9.25.02-14.43.05-.03-5.08-.07-22.76-.08-28.07h14.52Z"/>
  <path class="st0" d="M110.45,381.81c30.98,0,56.19-25.21,56.19-56.19s-25.21-56.19-56.19-56.19-56.19,25.21-56.19,56.19,25.21,56.19,56.19,56.19ZM110.45,289.43c19.96,0,36.19,16.23,36.19,36.19s-16.24,36.19-36.19,36.19-36.19-16.23-36.19-36.19,16.23-36.19,36.19-36.19Z"/>
</svg>