<?xml version="1.0" encoding="UTF-8"?>
<svg id="Layer_1" xmlns="http://www.w3.org/2000/svg" version="1.1" viewBox="0 0 42 48">
  <!-- Generator: Adobe Illustrator 29.8.1, SVG Export Plug-In . SVG Version: 2.1.1 Build 2)  -->
  <defs>
    <style>
      .st0 {
        fill: #fff;
        fill-rule: evenodd;
      }
    </style>
  </defs>
  <path id="path734" class="st0" d="M8.82,1C4.49,1,.99,4.5.99,8.83s3.51,7.83,7.83,7.83,7.83-3.51,7.83-7.83S13.14,1,8.82,1ZM33.44,1c-4.32,0-7.83,3.51-7.83,7.83s3.51,7.83,7.83,7.83,7.83-3.51,7.83-7.83-3.51-7.83-7.83-7.83ZM8.82,3.23c3.09,0,5.6,2.51,5.6,5.6,0,1.1-.32,2.13-.87,3-.42-.68-1.03-1.26-1.79-1.69.44-.6.7-1.35.7-2.15,0-2.01-1.63-3.64-3.64-3.64s-3.64,1.63-3.64,3.64c0,.8.26,1.55.7,2.15-.76.43-1.37,1.01-1.79,1.69-.55-.87-.87-1.9-.87-3,0-3.09,2.51-5.6,5.6-5.6ZM33.44,3.23c3.09,0,5.6,2.51,5.6,5.6,0,1.1-.32,2.13-.87,3-.42-.68-1.03-1.26-1.79-1.69.44-.6.7-1.35.7-2.15,0-2.01-1.63-3.64-3.64-3.64s-3.64,1.63-3.64,3.64c0,.8.26,1.55.7,2.15-.76.43-1.37,1.01-1.79,1.69-.55-.87-.87-1.9-.87-3,0-3.09,2.51-5.6,5.6-5.6ZM8.82,6.59c.77,0,1.4.63,1.4,1.4s-.63,1.4-1.4,1.4-1.4-.63-1.4-1.4.63-1.4,1.4-1.4ZM33.44,6.59c.77,0,1.4.63,1.4,1.4s-.63,1.4-1.4,1.4-1.4-.63-1.4-1.4.63-1.4,1.4-1.4ZM8.82,11.63c1.5,0,2.82.77,3.04,1.9-.88.57-1.92.9-3.04.9s-2.17-.33-3.04-.9c.22-1.13,1.55-1.9,3.04-1.9ZM33.44,11.63c1.5,0,2.82.77,3.04,1.9-.88.57-1.92.9-3.04.9s-2.17-.33-3.04-.9c.22-1.13,1.55-1.9,3.04-1.9ZM6.58,18.9c-.62,0-1.12.5-1.12,1.12v10.07c0,9.92,5.74,17.91,15.67,17.91s15.67-7.98,15.67-17.91v-10.07c0-.62-.5-1.12-1.12-1.12h-4.48c-.62,0-1.12.5-1.12,1.12v10.07c0,6.12-2.83,11.19-8.95,11.19s-8.95-5.07-8.95-11.19v-10.07c0-.62-.5-1.12-1.12-1.12h-4.48ZM22.19,20.02c-.36.02-.7.21-.9.54l-3.36,5.6c-.21.34-.21.77-.01,1.13.2.35.57.57.97.57h2.5l-2.34,3.9c-.32.53-.15,1.22.38,1.53.53.32,1.22.15,1.53-.38l3.36-5.6c.21-.34.21-.77.01-1.13-.2-.35-.57-.57-.97-.57h-2.5l2.34-3.9c.32-.53.15-1.22-.38-1.53-.2-.12-.42-.17-.63-.16ZM7.7,21.14h2.24v5.6h-2.24v-5.6ZM32.32,21.14h2.24v5.6h-2.24v-5.6ZM7.7,28.97h2.24v1.12c0,7.47,3.72,13.43,11.19,13.43s11.19-5.96,11.19-13.43v-1.12h2.24v1.12c0,8.61-4.82,15.67-13.43,15.67s-13.43-7.06-13.43-15.67v-1.12Z"/>
</svg>