<?xml version="1.0" encoding="UTF-8"?>
<svg id="Layer_1" xmlns="http://www.w3.org/2000/svg" version="1.1" viewBox="0 0 451 464.14">
  <!-- Generator: Adobe Illustrator 29.8.1, SVG Export Plug-In . SVG Version: 2.1.1 Build 2)  -->
  <defs>
    <style>
      .st0 {
        fill: #fff;
      }
    </style>
  </defs>
  <path class="st0" d="M347.48,395h-32.95l-6.25-16.67c-2.03-.73-4.03-1.56-5.98-2.48l-16.21,7.37-23.3-23.3,7.37-16.21c-.92-1.95-1.75-3.95-2.48-5.98l-16.67-6.25v-32.95l16.67-6.25c.73-2.03,1.56-4.03,2.48-5.98l-7.37-16.21,23.3-23.3,16.21,7.37c1.95-.92,3.95-1.75,5.98-2.48l6.25-16.67h32.95l6.25,16.67c2.03.73,4.03,1.56,5.98,2.48l16.21-7.37,23.3,23.3-7.37,16.21c.92,1.95,1.75,3.95,2.48,5.98l16.67,6.25v32.95l-16.67,6.25c-.73,2.03-1.56,4.03-2.48,5.98l7.37,16.21-23.3,23.3-16.21-7.37c-1.95.92-3.95,1.75-5.98,2.48l-6.25,16.67ZM328.38,375h5.23l4.89-13.04,4.94-1.35c3.85-1.05,7.55-2.58,11-4.56l4.44-2.55,12.68,5.77,3.7-3.7-5.76-12.68,2.55-4.44c1.98-3.46,3.51-7.16,4.56-11.01l1.35-4.94,13.04-4.89v-5.23l-13.04-4.89-1.35-4.94c-1.05-3.85-2.58-7.55-4.56-11l-2.55-4.44,5.77-12.68-3.7-3.7-12.68,5.77-4.44-2.55c-3.45-1.98-7.16-3.51-11-4.56l-4.94-1.35-4.89-13.04h-5.23l-4.89,13.04-4.94,1.35c-3.85,1.05-7.55,2.58-11,4.56l-4.44,2.55-12.68-5.77-3.7,3.7,5.77,12.68-2.55,4.44c-1.98,3.45-3.51,7.15-4.56,11l-1.35,4.94-13.04,4.89v5.23l13.04,4.89,1.35,4.94c1.05,3.85,2.58,7.55,4.56,11.01l2.55,4.44-5.76,12.68,3.7,3.7,12.68-5.77,4.44,2.55c3.45,1.98,7.16,3.51,11,4.56l4.94,1.35,4.89,13.04Z"/>
  <path class="st0" d="M301,430H1V0h244.14l95.86,95.86v84.14h-20v-75.86L236.86,20H21v390h280v20Z"/>
  <path class="st0" d="M331,110h-100V10h20v80h80v20Z"/>
  <path class="st0" d="M331,464.14l-44.25-44.25c-42.14-2.22-75.75-37.2-75.75-79.89v-130h75.86l44.14-44.14,44.14,44.14h75.86v130c0,42.69-33.6,77.67-75.75,79.89l-44.25,44.25ZM231,230v110c0,33.08,26.92,60,60,60h4.14l35.86,35.86,35.86-35.86h4.14c33.08,0,60-26.92,60-60v-110h-64.14l-35.86-35.86-35.86,35.86h-64.14Z"/>
  <path class="st0" d="M211,110h-80v-60h80v60ZM151,90h40v-20h-40v20Z"/>
  <path class="st0" d="M111,370H41v-240h120v-30h20v50H61v200h50v20Z"/>
  <path class="st0" d="M191,230h-90v-60h90v60ZM121,210h50v-20h-50v20Z"/>
  <path class="st0" d="M191,310h-90v-60h90v60ZM121,290h50v-20h-50v20Z"/>
  <path class="st0" d="M191,390h-90v-60h90v60ZM121,370h50v-20h-50v20Z"/>
  <path class="st0" d="M51,270h60v20h-60v-20Z"/>
  <path class="st0" d="M51,190h60v20h-60v-20Z"/>
  <path class="st0" d="M211,130h20v20h-20v-20Z"/>
  <path class="st0" d="M251,130h50v20h-50v-20Z"/>
  <path class="st0" d="M211,170h20v20h-20v-20Z"/>
  <path class="st0" d="M251,170h50v20h-50v-20Z"/>
  <path class="st0" d="M331,345c-16.54,0-30-13.46-30-30s13.46-30,30-30,30,13.46,30,30-13.46,30-30,30ZM331,305c-5.51,0-10,4.49-10,10s4.49,10,10,10,10-4.49,10-10-4.49-10-10-10Z"/>
</svg>