<?xml version="1.0" encoding="UTF-8"?>
<svg id="Layer_1" xmlns="http://www.w3.org/2000/svg" version="1.1" viewBox="0 0 460.69 512">
  <!-- Generator: Adobe Illustrator 29.8.1, SVG Export Plug-In . SVG Version: 2.1.1 Build 2)  -->
  <defs>
    <style>
      .st0 {
        fill: #fff;
      }
    </style>
  </defs>
  <path class="st0" d="M455.01,299.18c-2.94-4.45-6.75-7.99-11.06-10.54V16.98C443.95,7.62,436.35,0,427,0h-167.42C250.23,0,242.63,7.62,242.63,16.98v105.62l-2.18-1.17c-6.76-3.66-14.8-3.62-21.52.1l-35.23,18.9v-12.28c0-7.66-6.23-13.89-13.89-13.89h-19.13c-7.66,0-13.89,6.23-13.89,13.89v37.45l-30.46,16.34c-5.29,2.85-9.16,7.58-10.9,13.33-1.74,5.76-1.13,11.85,1.72,17.14s7.59,9.16,13.34,10.89c2.14.64,4.32.96,6.49.96,3.05,0,6.08-.64,8.92-1.88v77.55c-1.65.75-3.29,1.57-4.9,2.51l-42.93,24.77-8.75-15.14c-5.2-8.96-16.71-12.03-25.65-6.85l-34.27,19.78c-8.96,5.17-12.06,16.68-6.9,25.66l87.74,151.95c2.51,4.32,6.56,7.42,11.41,8.72,1.63.44,3.27.65,4.91.65,3.25,0,6.46-.85,9.33-2.52l34.28-19.79c8.94-5.19,12.03-16.69,6.88-25.65l-8.74-15.14,9.84-5.69c9.62-5.55,20.19-6.34,30.56-2.29l49.23,19.33c6.31,2.48,12.73,3.72,19.06,3.72,9.92,0,19.64-3.02,28.45-8.99l159.86-108.24c15.8-10.43,20.14-31.76,9.7-47.54h0ZM258.62,16.98c0-.54.44-.99.96-.99h167.41c.52,0,.96.45.96.99v266.87c-7.03-.33-14.21,1.47-20.51,5.64l-17.41,11.53v-35.82c0-8.17-6.65-14.83-14.83-14.83h-41.55v-28c4.87,2.12,10.27,2.46,15.41.92,1.59-.48,3.1-1.14,4.52-1.93,1.88,3.59,5.63,6.04,9.95,6.04h30.13c6.17,0,11.2-5.04,11.2-11.23v-30.13c0-6.17-5.02-11.2-11.2-11.2h-30.13c-4.7,0-8.74,2.9-10.4,7.01l-49.1-26.34h19.03c6.19,0,11.23-5.04,11.23-11.23v-30.1c0-6.19-5.04-11.23-11.23-11.23h-30.13c-6.17,0-11.2,5.04-11.2,11.23v29.36l-23.1-12.39V16.98h0ZM333.65,338.37v-71.99h40.39v45.25l-40.39,26.74ZM368.29,211.44v-20.58h20.58v20.58h-20.58ZM297.71,139.55v-20.58h20.58v20.58h-20.58ZM152.77,130.25h14.94v18.76l-14.94,8.01v-26.77ZM115.08,207.99c-1.66-.5-3.03-1.62-3.86-3.15-.82-1.53-1-3.28-.5-4.94.5-1.67,1.63-3.04,3.16-3.87l34.6-18.56c.06-.03.11-.06.17-.09l77.88-41.78s.08-.04.12-.06c.97-.54,2.04-.81,3.12-.81s2.12.26,3.1.79l112.81,60.51c3.16,1.7,4.35,5.66,2.65,8.82-.83,1.53-2.2,2.65-3.86,3.15s-3.42.32-4.96-.51h-.01l-105.93-56.83c-2.36-1.27-5.2-1.27-7.56,0l-105.97,56.84c-1.53.81-3.29,1-4.96.49h0ZM141.89,213.91l87.9-47.15,87.88,47.15v123.86c-4.9-6.3-11.96-10.9-20.21-12.59l-29.97-6.09v-68.62c0-4.41-3.58-7.99-7.99-7.99h-59.45c-4.42,0-7.99,3.58-7.99,7.99v53.29l-35.16-7.15c-5.1-1.04-10.11-1.33-15.01-.9v-81.8ZM251.5,315.84l-43.45-8.83v-48.54h43.45v57.37ZM142.17,475.85l-34.29,19.79c-1.3.76-3.05.28-3.81-1.02L16.36,342.7c-.76-1.32-.28-3.07,1.03-3.83l34.29-19.79c.42-.25.89-.36,1.36-.36.97,0,1.94.5,2.45,1.38l12.68,21.96s.03.06.05.09l.06.09,62.02,107.4c.06.11.11.23.17.34s.14.21.21.32l12.54,21.72c.74,1.31.26,3.07-1.05,3.83h0ZM436.43,333.46l-159.93,108.28c-10.09,6.83-21.4,8.08-32.71,3.63l-49.25-19.34c-15.06-5.88-30.41-4.73-44.38,3.33l-9.84,5.69-54.26-93.97,42.93-24.77c7.81-4.51,15.89-5.83,24.71-4.02l44.68,9.08s.08.02.12.02l95.76,19.46c8.55,1.75,14.74,9.37,14.7,18.12,0,.07.01.14.01.21-.01.13-.03.27-.04.4-.04.96-.16,1.93-.36,2.91-.96,4.76-3.75,8.88-7.84,11.59-4.1,2.72-8.99,3.68-13.77,2.71l-94.99-19.33c-4.32-.88-8.55,1.91-9.43,6.24s1.91,8.55,6.24,9.43l94.99,19.33c2.29.47,4.59.7,6.87.7,6.67,0,13.21-1.96,18.92-5.75,7.66-5.08,12.87-12.8,14.68-21.74.14-.71.25-1.43.35-2.14l61.7-40.86c.12-.07.23-.15.35-.23l29.63-19.62c5.04-3.34,11.14-3.83,16.42-1.89.29.13.6.25.91.35,3.19,1.36,6.02,3.62,8.08,6.72,5.57,8.43,3.25,19.83-5.25,25.46h0ZM292.92,83.68h30.13c6.19,0,11.23-5.04,11.23-11.23v-30.1c0-6.19-5.04-11.23-11.23-11.23h-30.13c-6.17,0-11.2,5.04-11.2,11.23v30.1c0,6.19,5.02,11.23,11.2,11.23ZM297.71,47.11h20.58v20.58h-20.58v-20.58ZM363.53,83.68h30.13c6.17,0,11.2-5.04,11.2-11.23v-30.1c0-6.19-5.02-11.23-11.2-11.23h-30.13c-6.19,0-11.23,5.04-11.23,11.23v30.1c0,6.19,5.04,11.23,11.23,11.23ZM368.29,47.11h20.58v20.58h-20.58v-20.58ZM363.53,155.54h30.13c6.17,0,11.2-5.04,11.2-11.23v-30.1c0-6.19-5.02-11.23-11.2-11.23h-30.13c-6.19,0-11.23,5.04-11.23,11.23v30.1c0,6.19,5.04,11.23,11.23,11.23ZM368.29,118.97h20.58v20.58h-20.58v-20.58Z"/>
</svg>