<?xml version="1.0" encoding="UTF-8"?>
<svg id="Capa_1" xmlns="http://www.w3.org/2000/svg" version="1.1" viewBox="0 0 512 512">
  <!-- Generator: Adobe Illustrator 29.8.1, SVG Export Plug-In . SVG Version: 2.1.1 Build 2)  -->
  <defs>
    <style>
      .st0 {
        fill: none;
        stroke: #fff;
        stroke-linecap: round;
        stroke-linejoin: round;
        stroke-width: 20px;
      }
    </style>
  </defs>
  <path class="st0" d="M30.08,502v-40.16c0-11.09,8.99-20.08,20.08-20.08h411.67c11.09,0,20.08,8.99,20.08,20.08v40.16"/>
  <line class="st0" x1="502" y1="502" x2="10" y2="502"/>
  <line class="st0" x1="51" y1="441.76" x2="51" y2="249.51"/>
  <line class="st0" x1="461" y1="441.76" x2="461" y2="249.51"/>
  <polyline class="st0" points="175.67 441.76 175.67 289.67 336.33 289.67 336.33 441.76"/>
  <line class="st0" x1="256" y1="441.76" x2="256" y2="289.67"/>
  <line class="st0" x1="215.84" y1="339.88" x2="215.84" y2="359.96"/>
  <line class="st0" x1="296.16" y1="339.88" x2="296.16" y2="359.96"/>
  <polyline class="st0" points="461 370 376.49 370 376.49 289.67 461 289.67"/>
  <polyline class="st0" points="51 289.67 135.51 289.67 135.51 370 51 370"/>
  <polyline class="st0" points="376.49 70.25 502 70.25 461 120.45 461 179.22"/>
  <polyline class="st0" points="51 179.22 51 120.45 10 70.25 135.51 70.25"/>
  <path class="st0" d="M376.49,179.22h110.45c8.31,0,15.06,6.75,15.06,15.06v40.16c0,8.31-6.75,15.06-15.06,15.06H25.06c-8.31,0-15.06-6.75-15.06-15.06v-40.16c0-8.31,6.75-15.06,15.06-15.06h110.45"/>
  <path class="st0" d="M461.84,120.45h-85.35"/>
  <line class="st0" x1="135.51" y1="120.45" x2="51" y2="120.45"/>
  <path class="st0" d="M346.37,209.35h-180.73c-16.64,0-30.12-13.49-30.12-30.12V40.12c0-16.64,13.49-30.12,30.12-30.12h180.73c16.64,0,30.12,13.49,30.12,30.12v139.1c0,16.64-13.49,30.12-30.12,30.12Z"/>
  <line class="st0" x1="251.35" y1="169.18" x2="251.35" y2="169.18"/>
  <line class="st0" x1="291.51" y1="169.18" x2="291.51" y2="169.18"/>
  <path class="st0" d="M176.04,50.16h12.62c9.7,0,18.44,5.87,22.12,14.84,2.12,5.18,21.67,52.94,23.6,57.66,2.64,4.82,7.71,7.82,13.21,7.82h48.94c5.7,0,10.92-3.22,13.48-8.32l25.95-51.92h-123.04"/>
</svg>