<?xml version="1.0" encoding="UTF-8"?>
<svg id="Layer_1" xmlns="http://www.w3.org/2000/svg" version="1.1" viewBox="0 0 512 512">
  <!-- Generator: Adobe Illustrator 29.8.1, SVG Export Plug-In . SVG Version: 2.1.1 Build 2)  -->
  <defs>
    <style>
      .st0 {
        fill: #fff;
      }
    </style>
  </defs>
  <path class="st0" d="M362.06,391.49c-8.05-4.69-17.63-5.96-26.62-3.54l-98.07,26.28c1.66-14.94-5.64-29.45-18.62-37.03l-90.45-52.7c-.31-.18-.63-.34-.96-.48-13.94-6.02-29.75-6.03-43.71-.04l-29.81,12.32v-2.61c0-7.71-6.26-13.96-13.97-13.97H14.96c-7.71,0-13.96,6.26-13.97,13.96v134.63c0,7.71,6.26,13.96,13.97,13.97h24.88c7.71,0,13.96-6.26,13.97-13.97v-4.37c15.94-6.22,28.96-5.66,42.88,1.72l52.45,27.79c8.75,4.82,18.55,7.4,28.54,7.51,4.91,0,9.8-.66,14.54-1.94l161.38-43.24c18.72-5,29.84-24.22,24.84-42.94-2.41-9.01-8.3-16.69-16.39-21.35h0ZM349.46,440.32l-161.38,43.24c-10.47,2.81-20.76,1.42-31.45-4.25l-52.45-27.79c-16.49-8.74-32.38-10.24-50.37-4.55v-93.37l35.92-14.84c9.87-4.31,21.07-4.37,30.99-.17l89.97,52.42c10.47,6.16,13.96,19.63,7.8,30.1-6.12,10.4-19.48,13.93-29.94,7.9l-48.32-28.15c-3.82-2.22-8.72-.93-10.94,2.89-2.22,3.82-.93,8.72,2.89,10.94l48.32,28.15c16.67,9.71,37.97,5.37,49.52-10.08l109.55-29.35c10.21-2.67,20.65,3.44,23.32,13.65,2.65,10.12-3.34,20.49-13.43,23.26h0ZM391.65,194.69c0,.18,0,.37-.02.55l-6.41,93.14c-.16,10.02-8.05,17.53-18.47,17.53s-18.31-7.51-18.47-17.53l-6.41-93.14c-.01-.18-.02-.37-.02-.55,0-15.68,12.53-23.88,24.91-23.88s24.91,8.2,24.91,23.88ZM244.57,189.15c-.01,10.34-6.88,19.41-16.82,22.25v2.78c0,4.42-3.58,8-8,8s-8-3.58-8-8v-2.45c-5.56-1.23-10.48-4.46-13.82-9.07-2.55-3.61-1.7-8.6,1.9-11.15,3.56-2.52,8.47-1.73,11.06,1.78,1.34,1.86,3.49,2.97,5.78,2.99h4.76c3.94-.05,7.09-3.28,7.04-7.21-.05-3.87-3.17-7-7.04-7.04h-3.38c-12.77,0-23.13-10.35-23.13-23.13,0-10.34,6.87-19.43,16.82-22.25v-2.78c0-4.42,3.58-8,8-8s8,3.58,8,8v2.45c5.56,1.23,10.48,4.46,13.82,9.07,2.59,3.58,1.79,8.58-1.79,11.17s-8.58,1.79-11.17-1.79c-1.34-1.86-3.49-2.97-5.78-2.99h-4.76c-3.94,0-7.13,3.19-7.13,7.12,0,3.94,3.19,7.13,7.12,7.13h3.39c12.77.01,23.11,10.36,23.13,23.13ZM508.03,339.12l-126.25-210.68c-4.99-8.31-15.77-11-24.08-6.01-2.46,1.48-4.53,3.54-6.01,6.01-3.15-9.15-7.26-17.94-12.25-26.23l13.83-13.84c3.12-3.12,3.12-8.19,0-11.31,0,0,0,0,0,0l-36.58-36.58c-3.12-3.12-8.19-3.12-11.31,0l-13.83,13.83c-11.79-7.11-24.59-12.41-37.95-15.73v-19.55c0-4.42-3.58-8-8-8h-51.73c-4.42,0-8,3.58-8,8v19.55c-13.36,3.32-26.16,8.62-37.95,15.73l-13.83-13.83c-3.12-3.12-8.19-3.12-11.31,0,0,0,0,0,0,0l-36.58,36.58c-3.12,3.12-3.12,8.19,0,11.31h0s13.83,13.83,13.83,13.83c-7.11,11.79-12.41,24.59-15.73,37.95h-19.55c-4.42,0-8,3.58-8,8v51.72c0,4.42,3.58,8,8,8h19.55c3.32,13.36,8.62,26.16,15.73,37.95l-13.83,13.83c-3.12,3.12-3.12,8.19,0,11.31l36.57,36.58c3.12,3.12,8.19,3.12,11.31,0,0,0,0,0,0,0l13.83-13.83c11.79,7.11,24.59,12.41,37.95,15.73v19.55c0,4.42,3.58,8,8,8h32.83l-1.27,2.11c-5.86,9.75-2.71,22.4,7.04,28.26,3.21,1.93,6.9,2.95,10.65,2.95h247.21c11.37.02,20.61-9.19,20.63-20.56,0-3.75-1.01-7.43-2.95-10.65h0ZM201.89,321.01v-17.95c0-3.82-2.69-7.1-6.44-7.85-15.8-3.14-30.82-9.36-44.2-18.32-3.17-2.12-7.4-1.7-10.1,1l-12.7,12.7-25.26-25.26,12.7-12.7c2.7-2.7,3.12-6.93,1-10.1-8.96-13.38-15.18-28.4-18.32-44.2-.75-3.74-4.03-6.43-7.85-6.43h-17.96v-35.73h17.95c3.82,0,7.1-2.69,7.85-6.44,3.14-15.8,9.37-30.82,18.32-44.2,2.12-3.17,1.7-7.4-1-10.1l-12.7-12.7,25.26-25.27,12.7,12.7c2.7,2.7,6.93,3.12,10.1,1,13.38-8.96,28.4-15.18,44.2-18.32,3.74-.74,6.44-4.03,6.44-7.84v-17.96h35.73v17.96c0,3.82,2.69,7.1,6.44,7.85,15.8,3.14,30.82,9.36,44.2,18.32,3.17,2.12,7.4,1.7,10.1-1l12.7-12.7,25.26,25.26-12.7,12.7c-2.7,2.7-3.12,6.93-1,10.1,8.49,12.68,14.52,26.84,17.8,41.75l-15.85,26.45c-.14-57.92-47.2-104.76-105.11-104.62-57.92.14-104.76,47.2-104.62,105.11.14,57.92,47.2,104.76,105.11,104.62,17.09-.04,33.91-4.25,48.99-12.28l-32.63,54.45h-34.41ZM282.35,174.02c0,34.57-28.02,62.59-62.59,62.59s-62.59-28.02-62.59-62.59,28.02-62.59,62.59-62.59h0c34.55.04,62.56,28.04,62.59,62.59h0ZM494.38,352c-.81,1.46-2.36,2.36-4.03,2.33h-247.21c-2.54.02-4.61-2.02-4.63-4.56,0-.85.23-1.69.67-2.42l126.25-210.68h0c.45-.73,1.4-.96,2.13-.51.21.13.38.3.51.51l126.25,210.68c.88,1.42.91,3.21.07,4.65ZM388.22,328.15c0,11.86-9.62,21.48-21.48,21.48s-21.48-9.62-21.48-21.48c0-11.86,9.62-21.48,21.48-21.48h0c11.86.01,21.47,9.62,21.48,21.48Z"/>
</svg>