<?xml version="1.0" encoding="UTF-8"?>
<svg id="Layer_1" xmlns="http://www.w3.org/2000/svg" version="1.1" viewBox="0 0 512 512">
  <!-- Generator: Adobe Illustrator 29.8.2, SVG Export Plug-In . SVG Version: 2.1.1 Build 3)  -->
  <defs>
    <style>
      .st0 {
        fill: #fff;
        fill-rule: evenodd;
      }
    </style>
  </defs>
  <path class="st0" d="M441.36,86.84v386.15c0,15.43-12.58,28.01-28.01,28.01H98.65c-15.43,0-28.01-12.58-28.01-28.01V86.84c0-15.43,12.58-28.01,28.01-28.01h58.71v28.22h-58.42v385.7h314.11V87.04h-58.42v-28.22h58.71c15.43,0,28.01,12.58,28.01,28.01ZM256,94.19h-84.64v-35.42c0-4.98,2-9.26,5.81-12.47,3.81-3.2,8.38-4.43,13.28-3.57l32.63,5.7v-4.52c0-18.18,14.74-32.91,32.91-32.91s32.91,14.74,32.91,32.91v4.52l32.63-5.7c4.9-.86,9.47.37,13.28,3.57s5.81,7.49,5.81,12.47v35.42h-84.64,0ZM256,52.56c5.52,0,10.03-4.51,10.03-10.03s-4.51-10.03-10.03-10.03-10.03,4.51-10.03,10.03,4.51,10.03,10.03,10.03ZM150.3,146.85c0,10.83,8.78,19.61,19.61,19.61s19.61-8.78,19.61-19.61-8.78-19.61-19.61-19.61-19.61,8.78-19.61,19.61ZM210.9,207.02c-1.89-20.98-19.52-37.43-41-37.43s-39.11,16.45-41,37.43v6.81h82v-6.81ZM381.74,203.26c0,3.51-2.87,6.38-6.39,6.38h-134.23c-3.51,0-6.38-2.87-6.38-6.38v-65.44c0-3.51,2.87-6.38,6.38-6.38h134.23c3.51,0,6.39,2.87,6.39,6.38v65.44ZM272.76,164.77l7.7,4.24c.4.22.86.19,1.23-.08.37-.27.54-.7.45-1.14l-1.65-8.63,6.41-6.01c.33-.31.45-.76.31-1.19-.14-.43-.5-.73-.95-.78l-8.72-1.1-3.74-7.96c-.19-.41-.58-.66-1.04-.66s-.84.25-1.04.66l-3.74,7.96-8.72,1.1c-.45.06-.81.35-.95.78-.14.43-.03.88.31,1.19l6.41,6.01-1.65,8.63c-.09.45.08.88.45,1.14s.83.3,1.23.08l7.7-4.24ZM304.94,181.1c-.14-.43-.49-.73-.95-.78l-8.72-1.1-3.74-7.96c-.19-.41-.58-.66-1.04-.66s-.84.25-1.04.66l-3.74,7.96-8.72,1.1c-.45.06-.81.35-.95.78-.14.43-.03.88.31,1.19l6.41,6.01-1.65,8.63c-.09.45.08.88.45,1.14s.83.3,1.23.08l7.7-4.24,7.7,4.24c.4.22.86.19,1.23-.08s.54-.7.45-1.14l-1.65-8.63,6.41-6.01c.33-.31.45-.76.31-1.19h0ZM309.97,164.77l7.7,4.24c.4.22.86.19,1.23-.08s.54-.7.45-1.14l-1.65-8.63,6.41-6.01c.33-.31.45-.76.31-1.19s-.49-.73-.95-.78l-8.72-1.1-3.74-7.96c-.19-.41-.58-.66-1.04-.66s-.84.25-1.04.66l-3.74,7.96-8.72,1.1c-.45.06-.81.35-.95.78-.14.43-.03.88.31,1.19l6.41,6.01-1.65,8.63c-.08.45.08.88.45,1.14s.83.3,1.23.08l7.7-4.24h0ZM343.87,181.1c-.14-.43-.49-.73-.95-.78l-8.72-1.1-3.74-7.96c-.19-.41-.58-.66-1.04-.66s-.84.25-1.04.66l-3.74,7.96-8.72,1.1c-.45.06-.81.35-.95.78s-.03.88.31,1.19l6.41,6.01-1.65,8.63c-.09.45.08.88.45,1.14s.83.3,1.23.08l7.7-4.24,7.7,4.24c.4.22.86.19,1.23-.08s.54-.7.45-1.14l-1.65-8.63,6.41-6.01c.33-.31.45-.76.31-1.19h0ZM361.61,151.96c-.14-.43-.5-.73-.95-.78l-8.72-1.1-3.74-7.96c-.19-.41-.58-.66-1.04-.66s-.84.25-1.04.66l-3.74,7.96-8.72,1.1c-.45.06-.81.35-.95.78s-.03.88.31,1.19l6.41,6.01-1.65,8.63c-.09.45.08.88.45,1.14s.83.3,1.23.08l7.7-4.24,7.7,4.24c.4.22.86.19,1.23-.08s.54-.7.45-1.14l-1.65-8.63,6.41-6.01c.33-.31.45-.76.31-1.19h0ZM210.9,317.7c-1.89-20.98-19.52-37.43-41-37.43s-39.11,16.45-41,37.43v6.81h82v-6.81ZM189.51,257.53c0-10.83-8.78-19.61-19.61-19.61s-19.61,8.78-19.61,19.61,8.78,19.61,19.61,19.61,19.61-8.78,19.61-19.61ZM128.9,428.38v6.81h82v-6.81c-1.89-20.98-19.52-37.43-41-37.43s-39.11,16.45-41,37.43ZM189.51,368.21c0-10.83-8.78-19.61-19.61-19.61s-19.61,8.78-19.61,19.61,8.78,19.61,19.61,19.61,19.61-8.78,19.61-19.61ZM381.74,313.94c0,3.51-2.87,6.39-6.39,6.39h-134.23c-3.51,0-6.38-2.87-6.38-6.39v-65.44c0-3.51,2.87-6.38,6.38-6.38h134.23c3.51,0,6.39,2.87,6.39,6.38v65.44ZM280.04,273.67l7.7,4.24c.4.22.86.19,1.23-.08s.54-.7.45-1.14l-1.65-8.63,6.41-6.01c.33-.31.45-.76.31-1.19-.14-.43-.49-.73-.95-.78l-8.72-1.1-3.74-7.96c-.19-.41-.58-.66-1.04-.66s-.84.25-1.04.66l-3.74,7.96-8.72,1.1c-.45.06-.81.35-.95.78-.14.43-.03.88.31,1.19l6.41,6.01-1.65,8.63c-.08.45.08.88.45,1.14s.83.3,1.23.08l7.7-4.24h0ZM312.22,290c-.14-.43-.49-.73-.95-.78l-8.72-1.1-3.74-7.95c-.19-.41-.58-.66-1.04-.66s-.84.25-1.04.66l-3.74,7.95-8.72,1.1c-.45.06-.81.35-.95.78-.14.43-.03.88.31,1.19l6.41,6.01-1.65,8.63c-.09.45.08.88.45,1.14s.83.3,1.23.08l7.7-4.24,7.7,4.24c.4.22.86.19,1.23-.08.37-.27.54-.7.45-1.14l-1.65-8.63,6.41-6.01c.33-.31.45-.76.31-1.19h0ZM318.7,273.67l7.7,4.24c.4.22.86.19,1.23-.08s.54-.7.45-1.14l-1.65-8.63,6.41-6.01c.33-.31.45-.76.31-1.19s-.49-.73-.95-.78l-8.72-1.1-3.74-7.96c-.19-.41-.58-.66-1.04-.66s-.84.25-1.04.66l-3.74,7.96-8.72,1.1c-.45.06-.81.35-.95.78-.14.43-.03.88.31,1.19l6.41,6.01-1.65,8.63c-.09.45.08.88.45,1.14s.83.3,1.23.08l7.7-4.24h0ZM350.88,290c-.14-.43-.5-.73-.95-.78l-8.72-1.1-3.74-7.95c-.19-.41-.58-.66-1.04-.66s-.84.25-1.04.66l-3.74,7.95-8.72,1.1c-.45.06-.81.35-.95.78-.14.43-.03.88.31,1.19l6.41,6.01-1.65,8.63c-.09.45.08.88.45,1.14s.83.3,1.23.08l7.7-4.24,7.7,4.24c.4.22.86.19,1.23-.08.37-.27.54-.7.45-1.14l-1.65-8.63,6.41-6.01c.33-.31.45-.76.31-1.19h0ZM381.74,359.18v65.44c0,3.51-2.87,6.39-6.39,6.39h-134.23c-3.51,0-6.38-2.87-6.38-6.39v-65.44c0-3.51,2.87-6.39,6.38-6.39h134.23c3.51,0,6.39,2.87,6.39,6.39ZM285.48,387.42c-.14-.43-.49-.73-.95-.78l-8.72-1.1-3.74-7.95c-.19-.41-.58-.66-1.04-.66s-.84.25-1.04.66l-3.74,7.95-8.72,1.1c-.45.06-.81.35-.95.78s-.03.88.31,1.19l6.41,6.01-1.65,8.63c-.09.45.08.88.45,1.14s.83.3,1.23.08l7.7-4.24,7.7,4.24c.4.22.86.19,1.23-.08s.54-.7.45-1.14l-1.65-8.63,6.41-6.01c.33-.31.45-.76.31-1.19h0ZM322.68,387.42c-.14-.43-.5-.73-.95-.78l-8.72-1.1-3.74-7.95c-.19-.41-.58-.66-1.04-.66s-.84.25-1.04.66l-3.74,7.95-8.72,1.1c-.45.06-.81.35-.95.78-.14.43-.03.88.31,1.19l6.41,6.01-1.65,8.63c-.09.45.08.88.45,1.14s.83.3,1.23.08l7.7-4.24,7.7,4.24c.4.22.86.19,1.23-.08s.54-.7.45-1.14l-1.65-8.63,6.41-6.01c.33-.31.45-.76.31-1.19h0ZM359.89,387.42c-.14-.43-.49-.73-.95-.78l-8.72-1.1-3.74-7.95c-.19-.41-.58-.66-1.04-.66s-.84.25-1.04.66l-3.74,7.95-8.72,1.1c-.45.06-.81.35-.95.78-.14.43-.03.88.31,1.19l6.41,6.01-1.65,8.63c-.09.45.08.88.45,1.14s.83.3,1.23.08l7.7-4.24,7.7,4.24c.4.22.86.19,1.23-.08s.54-.7.45-1.14l-1.65-8.63,6.41-6.01c.33-.31.45-.76.31-1.19h0Z"/>
</svg>