<?xml version="1.0" encoding="UTF-8"?>
<svg id="Layer_1" xmlns="http://www.w3.org/2000/svg" version="1.1" viewBox="0 0 512 512">
  <!-- Generator: Adobe Illustrator 29.8.1, SVG Export Plug-In . SVG Version: 2.1.1 Build 2)  -->
  <defs>
    <style>
      .st0 {
        fill: #fff;
        fill-rule: evenodd;
      }
    </style>
  </defs>
  <path class="st0" d="M202.09,300.97c-48.69-28.57-81.97-68.01-86.62-160.52,32.62,3.45,64.89-9.08,86.62-33.65,19.22,21.66,46.77,34.11,75.73,34.22,3.63,0,7.26-.21,10.9-.57-4.66,92.51-37.93,131.95-86.63,160.52h0ZM302.2,124.8c-1.88-1.59-4.4-2.2-6.8-1.64-32.68,7.07-66.77-6.22-86.83-33.79-2.52-3.58-7.47-4.43-11.04-1.91-.74.52-1.39,1.17-1.91,1.91-20.06,27.57-54.14,40.86-86.83,33.79-2.4-.55-4.92.05-6.8,1.64-1.89,1.56-2.96,3.91-2.89,6.36,1.4,50.43,10.86,89.87,28.93,120.52,15.56,26.43,37.84,47.22,70.13,65.44,2.43,1.43,5.44,1.43,7.87,0,32.28-18.22,54.56-39,70.12-65.44,18.06-30.65,27.53-70.08,28.93-120.52.06-2.45-1.01-4.8-2.89-6.36h0ZM338.31,351.4c2.26-2.07,4.51-4.21,6.71-6.36,2.2-2.21,4.32-4.5,6.4-6.71l23.25,23.22-13.12,13.16-23.24-23.29h0ZM407.77,339.76c-3.09-3.12-8.14-3.15-11.26-.05-.02.02-.03.03-.05.05l-10.49,10.5-24.2-24.22c61.58-79.23,55.99-194.1-16.75-266.82-78.88-78.93-206.82-78.97-285.75-.08-.03.03-.06.06-.08.08-78.93,78.89-78.97,206.83-.08,285.76,37.91,37.93,89.35,59.24,142.98,59.22,44.9.12,88.54-14.82,123.94-42.43l24.19,24.22-10.48,10.5c-3.11,3.12-3.11,8.17,0,11.29l90.19,90.15c18.75,18.82,49.2,18.88,68.02.13,18.82-18.75,18.88-49.2.13-68.02-.04-.04-.08-.08-.12-.12l-90.19-90.16h0ZM297.7,297.68c52.71-52.82,52.71-138.35,0-191.17-52.71-52.72-138.5-52.72-191.23,0-52.44,53.15-51.86,138.76,1.29,191.2,52.66,51.95,137.29,51.94,189.94-.03ZM206.15,161.09c.16-1.04-.19-2.1-.92-2.86-.67-.81-1.68-1.26-2.73-1.21h-.81c-2.03,0-3.67,1.64-3.67,3.67,0,.13,0,.27.02.4l4.06,37.79,4.05-37.79ZM202.09,254.18c-.88,0-1.6.72-1.6,1.6,0,.01,0,.03,0,.04,0,.89.72,1.6,1.6,1.6s1.6-.72,1.6-1.6c.02-.88-.67-1.62-1.56-1.64-.02,0-.03,0-.05,0ZM189.1,227.68c.74,7.18,7.16,12.39,14.34,11.65,6.15-.64,11.01-5.5,11.65-11.65l6.96-64.87c1.18-10.79-6.6-20.49-17.38-21.67-.72-.08-1.44-.12-2.17-.12h-.81c-10.85-.02-19.66,8.77-19.68,19.62,0,.73.04,1.45.12,2.17l6.97,64.87h0ZM187.7,255.82c.02,7.95,6.48,14.39,14.43,14.37s14.39-6.48,14.37-14.43c-.02-7.95-6.47-14.38-14.41-14.37-7.94,0-14.39,6.44-14.39,14.38,0,.02,0,.03,0,.05h0Z"/>
</svg>